<svg width="176" height="42" viewBox="0 1 176 42" fill="none" xmlns="http://www.w3.org/2000/svg">
<path d="M53.1205 11.2623C53.1205 9.81074 53.8713 8.59692 55.3729 7.62085C56.8996 6.64479 59.2271 6.15676 62.3556 6.15676C66.2098 6.15676 68.1369 7.85861 68.1369 11.2623C68.1369 12.3385 67.7114 13.3646 66.8605 14.3407C66.41 14.8412 65.3964 15.4669 63.8197 16.2177C62.9437 16.6182 61.8175 16.9686 60.441 17.2689C59.0895 17.5692 58.4012 17.7194 58.3762 17.7194C57.6254 17.7194 57.25 17.344 57.25 16.5931C57.25 16.0425 57.6254 15.6796 58.3762 15.5045C59.127 15.3042 59.6526 15.1666 59.9529 15.0915C60.2783 15.0164 60.8164 14.8788 61.5672 14.6786C62.318 14.4533 62.8811 14.2406 63.2565 14.0404C63.632 13.8401 64.0574 13.6024 64.5329 13.3271C65.4339 12.8015 65.8844 12.0632 65.8844 11.1122C65.8844 10.1361 65.6467 9.44785 65.1711 9.04741C64.7206 8.62195 63.8071 8.40921 62.4306 8.40921C61.0541 8.40921 59.8779 8.50932 58.9018 8.70954C57.9257 8.90976 57.1999 9.16003 56.7244 9.46036C55.8234 10.061 55.3729 10.6742 55.3729 11.2999C55.3729 12.9517 55.7108 15.4043 56.3865 18.6579C57.0873 21.9115 57.5879 24.0763 57.8882 25.1525C58.2135 26.2036 58.3762 26.8293 58.3762 27.0295C58.3762 27.7804 58.0008 28.1558 57.25 28.1558C56.8996 28.1558 56.6493 28.0682 56.4992 27.893C56.349 27.7178 56.0987 26.9795 55.7484 25.6781C55.398 24.3766 54.8724 22.0992 54.1716 18.8456C53.4709 15.567 53.1205 13.0393 53.1205 11.2623Z" fill="white"/>
<path d="M78.3281 9.53544C78.7285 9.53544 79.1415 9.72315 79.5669 10.0986C79.9924 10.4489 80.2051 10.8243 80.2051 11.2248C80.2051 11.6002 80.0299 11.888 79.6796 12.0882C79.3542 12.2884 78.9913 12.3886 78.5909 12.3886C78.1904 12.3886 77.8526 12.2134 77.5773 11.863C77.327 11.4876 77.2018 11.0871 77.2018 10.6617C77.2018 9.91085 77.5773 9.53544 78.3281 9.53544ZM74.9494 23.5007C73.5479 25.0023 72.1213 26.0785 70.6697 26.7292C70.2192 26.9294 69.8563 27.0295 69.581 27.0295C68.8302 27.0295 68.4548 26.6541 68.4548 25.9033C68.4548 25.4278 68.8302 25.0399 69.581 24.7395C69.9815 24.5894 70.507 24.289 71.1577 23.8386C71.8335 23.3881 72.284 23.0502 72.5092 22.8249C72.7345 22.5997 73.1224 22.1868 73.673 21.5861C74.2486 20.9854 74.6991 20.5349 75.0245 20.2346C75.3498 19.9093 75.7878 19.5839 76.3384 19.2586C76.914 18.9332 77.4396 18.7705 77.9151 18.7705C78.8912 18.7705 79.642 19.1209 80.1676 19.8217C80.6932 20.5224 81.006 21.2983 81.1061 22.1492C81.3814 24.4017 81.8194 25.5279 82.42 25.5279C82.8956 25.5279 83.5087 25.4028 84.2595 25.1525C85.0104 24.9022 85.4233 24.7771 85.4984 24.7771C86.2492 24.7771 86.6246 25.1525 86.6246 25.9033C86.6246 26.4539 86.2492 26.8543 85.4984 27.1046C84.1469 27.5551 83.0457 27.7804 82.1948 27.7804C81.3689 27.7804 80.6932 27.43 80.1676 26.7292C79.642 26.0284 79.3292 25.2526 79.2291 24.4017C78.9538 22.1492 78.5158 21.023 77.9151 21.023C77.5898 21.023 77.2144 21.2357 76.7889 21.6612C76.3885 22.0616 76.0631 22.387 75.8128 22.6372C75.5626 22.8625 75.2747 23.1503 74.9494 23.5007Z" fill="white"/>
<path d="M92.891 29.1694C92.7409 28.9692 92.2904 28.3935 91.5396 27.4425C90.7887 26.4915 90.2757 25.8282 90.0004 25.4528C89.7501 25.0524 89.3872 24.4768 88.9117 23.7259C88.0858 22.4245 87.6728 21.0981 87.6728 19.7466C87.6728 18.3951 88.0357 17.2063 88.7615 16.1802C89.5124 15.1541 90.4509 14.641 91.5771 14.641C92.7033 14.641 93.6919 14.9789 94.5428 15.6546C95.3938 16.3304 95.9569 17.2939 96.2322 18.5453C96.2822 18.7455 96.3073 18.9457 96.3073 19.1459C96.3073 19.8968 95.9319 20.2722 95.181 20.2722C94.6304 20.2722 94.255 19.8968 94.0548 19.1459C93.7044 17.6443 92.9536 16.8935 91.8024 16.8935C91.1767 16.8935 90.7012 17.2063 90.3758 17.832C90.0755 18.4327 89.9253 19.0333 89.9253 19.634C89.9253 20.2346 90.0004 20.7727 90.1505 21.2482C90.3257 21.7237 90.601 22.2743 90.9764 22.9C91.3769 23.5007 91.7022 23.9762 91.9525 24.3266C92.6283 25.2776 93.5167 26.4164 94.6179 27.7428C96.2697 26.5165 97.934 25.6155 99.6109 25.0399C100.136 24.8647 100.437 24.7771 100.512 24.7771C101.263 24.7771 101.638 25.1525 101.638 25.9033C101.638 26.4539 101.263 26.8543 100.512 27.1046C99.0352 27.5801 97.4961 28.406 95.8943 29.5823C97.0706 31.4093 97.6587 32.9485 97.6587 34.1999C97.6587 35.4512 97.1582 36.7026 96.1571 37.954C95.156 39.2304 94.0673 39.8686 92.891 39.8686C91.7148 39.8686 90.7387 39.4681 89.9628 38.6672C89.187 37.8664 88.7991 36.8653 88.7991 35.664C88.7991 33.8119 90.1631 31.6471 92.891 29.1694ZM94.1674 31.0089C92.0902 32.961 91.0515 34.5127 91.0515 35.664C91.0515 36.2646 91.2142 36.7401 91.5396 37.0905C91.8649 37.4409 92.3029 37.6161 92.8535 37.6161C93.4291 37.6161 93.9922 37.2031 94.5428 36.3772C95.1185 35.5513 95.4063 34.763 95.4063 34.0122C95.4063 33.2864 94.9933 32.2853 94.1674 31.0089Z" fill="white"/>
<path d="M113.591 28.1558C111.188 28.1558 109.173 26.3538 107.547 22.7499C106.646 23.4757 105.507 24.2765 104.13 25.1525C102.754 26.0284 101.853 26.5665 101.428 26.7668C101.002 26.9419 100.652 27.0295 100.376 27.0295C99.6255 27.0295 99.2501 26.6541 99.2501 25.9033C99.2501 25.4278 99.6255 25.0399 100.376 24.7395C100.802 24.5643 101.69 24.0388 103.042 23.1628C104.418 22.2618 105.582 21.4234 106.533 20.6476C105.982 18.8456 105.707 16.8434 105.707 14.641C105.707 11.3124 106.32 8.43424 107.547 6.00659C108.798 3.55391 110.187 2.32758 111.714 2.32758C112.364 2.32758 112.928 2.52779 113.403 2.92823C113.879 3.32867 114.229 3.82921 114.454 4.42987C114.88 5.58113 115.092 6.83249 115.092 8.18397C115.092 9.53544 114.942 10.9119 114.642 12.3135C114.342 13.69 113.979 14.8537 113.553 15.8048C113.153 16.7558 112.665 17.6443 112.089 18.4702C111.238 19.6965 110.35 20.6851 109.424 21.4359C110.775 24.4142 112.164 25.9033 113.591 25.9033C114.567 25.9033 115.618 25.7156 116.744 25.3402C117.87 24.9648 118.471 24.7771 118.546 24.7771C119.297 24.7771 119.672 25.1525 119.672 25.9033C119.672 26.4539 119.297 26.8543 118.546 27.1046C116.444 27.8054 114.792 28.1558 113.591 28.1558ZM111.714 4.58003C111.288 4.58003 110.738 5.10561 110.062 6.15676C108.66 8.35916 107.96 11.1872 107.96 14.641C107.96 16.3929 108.147 17.9321 108.523 19.2586C109.349 18.4827 110.112 17.4816 110.813 16.2553C112.164 13.9027 112.84 11.1122 112.84 7.88364C112.84 7.15785 112.74 6.43206 112.54 5.70626C112.339 4.95544 112.064 4.58003 111.714 4.58003Z" fill="white"/>
<path d="M127.161 9.53544C127.561 9.53544 127.974 9.72315 128.4 10.0986C128.825 10.4489 129.038 10.8243 129.038 11.2248C129.038 11.6002 128.863 11.888 128.512 12.0882C128.187 12.2884 127.824 12.3886 127.423 12.3886C127.023 12.3886 126.685 12.2134 126.41 11.863C126.16 11.4876 126.034 11.0871 126.034 10.6617C126.034 9.91085 126.41 9.53544 127.161 9.53544ZM123.782 23.5007C122.38 25.0023 120.954 26.0785 119.502 26.7292C119.052 26.9294 118.689 27.0295 118.414 27.0295C117.663 27.0295 117.287 26.6541 117.287 25.9033C117.287 25.4278 117.663 25.0399 118.414 24.7395C118.814 24.5894 119.34 24.289 119.99 23.8386C120.666 23.3881 121.117 23.0502 121.342 22.8249C121.567 22.5997 121.955 22.1868 122.506 21.5861C123.081 20.9854 123.532 20.5349 123.857 20.2346C124.182 19.9093 124.62 19.5839 125.171 19.2586C125.747 18.9332 126.272 18.7705 126.748 18.7705C127.724 18.7705 128.475 19.1209 129 19.8217C129.526 20.5224 129.839 21.2983 129.939 22.1492C130.214 24.4017 130.652 25.5279 131.253 25.5279C131.728 25.5279 132.341 25.4028 133.092 25.1525C133.843 24.9022 134.256 24.7771 134.331 24.7771C135.082 24.7771 135.457 25.1525 135.457 25.9033C135.457 26.4539 135.082 26.8543 134.331 27.1046C132.98 27.5551 131.878 27.7804 131.027 27.7804C130.201 27.7804 129.526 27.43 129 26.7292C128.475 26.0284 128.162 25.2526 128.062 24.4017C127.786 22.1492 127.348 21.023 126.748 21.023C126.422 21.023 126.047 21.2357 125.621 21.6612C125.221 22.0616 124.896 22.387 124.645 22.6372C124.395 22.8625 124.107 23.1503 123.782 23.5007Z" fill="white"/>
<path d="M134.178 24.7395C135.529 24.1889 136.593 23.6133 137.369 23.0127C138.145 22.387 139.096 21.486 140.222 20.3097C141.348 19.1334 142.087 18.3951 142.437 18.0948C143.638 17.0436 144.915 16.5181 146.266 16.5181C147.092 16.5181 147.993 16.7183 148.969 17.1187C149.97 17.5192 150.896 18.2324 151.747 19.2586C152.598 20.2847 153.023 21.511 153.023 22.9376C153.023 24.3391 152.198 25.5654 150.546 26.6166C148.894 27.6427 146.717 28.1558 144.014 28.1558C143.263 28.1558 142.887 27.7804 142.887 27.0295C142.887 26.2787 143.263 25.9033 144.014 25.9033C146.066 25.9033 147.705 25.578 148.932 24.9272C150.158 24.2515 150.771 23.5758 150.771 22.9C150.771 21.974 150.471 21.1731 149.87 20.4974C148.819 19.3462 147.618 18.7705 146.266 18.7705C145.49 18.7705 144.727 19.0959 143.976 19.7466C143.751 19.9468 143.025 20.6726 141.799 21.924C140.597 23.1753 139.596 24.1139 138.795 24.7395C138.02 25.3652 137.119 25.9033 136.092 26.3538C135.091 26.8043 134.453 27.0295 134.178 27.0295C133.427 27.0295 133.052 26.6541 133.052 25.9033C133.052 25.4278 133.427 25.0399 134.178 24.7395Z" fill="white"/>
<path d="M176 25.9033C176 26.9044 174.849 27.4049 172.546 27.4049C171.47 27.4049 170.632 27.1672 170.031 26.6917C169.455 26.2162 169.168 25.3902 169.168 24.214C169.168 23.0377 169.067 22.0241 168.867 21.1731C168.667 20.3222 168.392 19.8968 168.041 19.8968C166.99 19.8968 165.989 20.8728 165.038 22.8249C164.638 23.6258 164.212 24.4392 163.762 25.2651C163.311 26.066 162.711 26.7542 161.96 27.3299C161.234 27.8805 160.383 28.1558 159.407 28.1558C157.154 28.1558 156.028 25.9784 156.028 21.6236C156.028 18.4952 156.366 15.4544 157.042 12.5012C157.743 9.54796 158.706 7.12031 159.932 5.21823C161.184 3.29113 162.498 2.32758 163.874 2.32758C165.251 2.32758 166.289 2.82812 166.99 3.82922C167.691 4.83031 168.041 6.13173 168.041 7.73348C168.041 9.3102 167.591 10.8744 166.69 12.4261C165.814 13.9528 164.738 15.1916 163.461 16.1427C162.836 16.6432 162.36 16.8935 162.035 16.8935C161.284 16.8935 160.909 16.5181 160.909 15.7672C160.909 15.4669 161.334 14.9914 162.185 14.3407C163.036 13.69 163.849 12.764 164.625 11.5627C165.401 10.3363 165.789 8.90976 165.789 7.28298C165.789 6.60725 165.639 5.99408 165.338 5.44348C165.038 4.86785 164.563 4.58003 163.912 4.58003C163.161 4.58003 162.348 5.3684 161.472 6.94512C160.621 8.49681 159.87 10.6241 159.219 13.3271C158.594 16.03 158.281 18.8081 158.281 21.6612C158.281 24.4893 158.656 25.9033 159.407 25.9033C160.458 25.9033 161.459 24.9272 162.41 22.9751C162.811 22.1742 163.236 21.3734 163.687 20.5725C164.137 19.7466 164.725 19.0583 165.451 18.5077C166.202 17.9321 167.065 17.6443 168.041 17.6443C170.294 17.6443 171.42 19.7716 171.42 24.0263C171.42 24.7771 171.783 25.1525 172.509 25.1525C173.26 25.1525 173.823 25.0899 174.198 24.9648C174.573 24.8396 174.799 24.7771 174.874 24.7771C175.625 24.7771 176 25.1525 176 25.9033Z" fill="white"/>
<g clip-path="url(#clip0_4_342)">
<path d="M32.5451 24.567L32.6644 25.5071C32.6856 25.6554 32.7631 25.7896 32.88 25.8806C32.997 25.9717 33.1441 26.0124 33.2896 25.9939C33.4351 25.9755 33.5673 25.8993 33.6578 25.7819C33.7483 25.6645 33.7898 25.5153 33.7733 25.3664L33.654 24.4263C33.6456 24.351 33.6227 24.278 33.5865 24.2117C33.5503 24.1454 33.5016 24.087 33.4432 24.04C33.3848 23.993 33.3179 23.9582 33.2463 23.9378C33.1748 23.9174 33.1 23.9117 33.0265 23.921C32.9529 23.9303 32.8819 23.9545 32.8177 23.9922C32.7536 24.0299 32.6974 24.0802 32.6526 24.1404C32.6078 24.2005 32.5752 24.2692 32.5568 24.3424C32.5383 24.4157 32.5343 24.492 32.5451 24.567ZM18.6821 26.3267L18.8015 27.2668C18.8221 27.4156 18.8993 27.5505 19.0164 27.6421C19.1335 27.7338 19.281 27.7748 19.427 27.7563C19.573 27.7377 19.7056 27.6612 19.7961 27.5432C19.8866 27.4252 19.9277 27.2753 19.9104 27.126L19.7911 26.1859C19.7828 26.1106 19.7598 26.0377 19.7237 25.9713C19.6875 25.905 19.6388 25.8467 19.5804 25.7996C19.522 25.7526 19.455 25.7179 19.3835 25.6974C19.3119 25.677 19.2372 25.6713 19.1636 25.6806C19.09 25.69 19.0191 25.7142 18.9549 25.7518C18.8907 25.7895 18.8346 25.8399 18.7898 25.9C18.745 25.9601 18.7124 26.0288 18.6939 26.1021C18.6754 26.1753 18.6714 26.2517 18.6821 26.3267ZM24.6914 36.3889C26.004 36.2223 26.9337 34.9956 26.7635 33.6547C26.5933 32.3139 25.3867 31.3587 24.074 31.5254C22.7614 31.692 21.8316 32.9184 22.0017 34.2592C22.1719 35.6 23.3786 36.5555 24.6914 36.3889ZM24.2178 32.6577C24.9193 32.5686 25.5637 33.0792 25.6546 33.7955C25.7456 34.5121 25.2491 35.1672 24.5476 35.2562C23.8463 35.3452 23.2016 34.8347 23.1107 34.1185C23.0198 33.4022 23.5165 32.7467 24.2178 32.6577ZM30.5826 35.6411C31.8953 35.4745 32.8247 34.2479 32.6545 32.907C32.4843 31.5661 31.278 30.611 29.9653 30.7776C28.6523 30.9443 27.7228 32.1706 27.893 33.5114C28.0632 34.8522 29.2696 35.8078 30.5826 35.6411ZM30.109 31.9099C30.8103 31.8209 31.455 32.3315 31.5459 33.0477C31.6369 33.7643 31.1401 34.4194 30.4389 34.5084C29.7373 34.5975 29.0925 34.087 29.0016 33.3707C28.9107 32.6545 29.4074 31.9989 30.109 31.9099Z" fill="white"/>
<path d="M45.0447 4.80453C44.1561 3.89948 42.9002 3.57537 41.6856 3.93841C36.8803 5.37331 34.5428 8.00983 33.4581 9.81699C33.3989 9.77683 30.0591 6.81738 24.2233 7.55811C18.3873 8.29888 15.8925 11.9996 15.8445 12.0534C14.3907 10.6285 11.4574 8.60631 6.41048 8.41598C5.14336 8.36821 4.00839 8.99544 3.37394 10.0938C2.74364 11.1853 2.76913 12.5268 3.44026 13.5951C4.6827 15.5725 5.43727 17.366 5.68369 18.9265C5.89228 20.2488 5.99115 20.9346 6.92156 22.0265C7.06626 22.196 7.46801 22.3642 7.81761 22.098C8.09696 21.8854 8.1169 21.469 7.88942 21.2019C7.11076 20.2886 7.11143 19.8191 6.93929 18.7281C6.72719 17.3835 6.1866 15.9034 5.33095 14.3149C6.96506 14.8513 9.71686 15.9178 12.4636 17.7195C12.4122 17.8508 11.132 20.7911 10.3222 21.9589C9.10877 23.7091 7.32355 27.332 8.99561 31.9369C9.8327 34.2413 11.5584 35.8308 14.1252 36.6617C16.0367 37.28 18.0569 37.3489 19.5351 37.2774C19.7973 38.1044 20.2151 38.733 20.799 39.1822C22.321 40.3524 24.6249 40.0427 27.2928 39.6847C27.9421 39.5976 28.96 39.4778 29.2628 39.4394C32.9445 38.9721 34.3971 38.6592 35.4396 37.3239C35.8927 36.7432 36.1406 36.0299 36.1878 35.1637C37.7251 34.8454 39.0475 34.4131 40.7915 33.2394C40.8608 33.1928 40.9202 33.133 40.9663 33.0634C41.0124 32.9938 41.0444 32.9158 41.0604 32.8339C41.0764 32.7519 41.0761 32.6677 41.0595 32.5858C41.043 32.504 41.0104 32.4262 40.9638 32.357C40.9172 32.2877 40.8574 32.2283 40.7878 32.1822C40.7182 32.1361 40.6402 32.1041 40.5583 32.0881C40.4763 32.0721 40.392 32.0724 40.3102 32.089C40.2284 32.1055 40.1506 32.1381 40.0814 32.1847C38.577 33.1968 37.5199 33.5734 36.1269 33.8774C35.8265 31.639 34.6488 29.4396 32.8872 27.8342C30.996 26.1109 28.7323 25.3171 26.5132 25.5987C24.2942 25.8804 22.3005 27.2146 20.8999 29.3558C19.5951 31.3507 19.0041 33.775 19.2728 36.0176C12.9101 36.279 10.8526 33.3251 10.1908 31.503C8.78784 27.6397 10.0562 24.5745 11.3672 22.6835C12.2379 21.4275 12.9588 20.0349 13.51 18.5441C14.7187 15.2743 17.7385 9.66296 24.3834 8.81952C31.0283 7.97608 35.3543 12.655 37.3416 15.5191C38.2478 16.825 39.2937 17.9933 40.4506 18.992C42.1925 20.4955 44.1864 23.1465 43.7931 27.2378C43.681 28.405 43.4205 28.7074 43.1169 29.1055C43.0663 29.1719 43.0292 29.2476 43.0079 29.3283C42.9866 29.409 42.9813 29.4931 42.9925 29.5758C43.0037 29.6586 43.0311 29.7383 43.0731 29.8104C43.1151 29.8825 43.1709 29.9457 43.2373 29.9963C43.3037 30.0469 43.3793 30.0839 43.46 30.1053C43.5407 30.1266 43.6248 30.1319 43.7075 30.1207C43.7902 30.1096 43.8699 30.0822 43.9421 30.0403C44.0142 29.9983 44.0774 29.9426 44.128 29.8762C44.5606 29.3086 44.9234 28.7661 45.0586 27.3595C45.3798 24.0172 44.2435 21.5272 42.9776 19.8432C44.4547 18.1831 45.2139 15.9958 45.0153 13.9341C44.864 12.3619 45.1466 10.4364 45.8556 8.21167C46.2386 7.00921 45.9277 5.7039 45.0447 4.80453ZM21.9638 30.0517C23.1572 28.2273 24.8296 27.0937 26.6733 26.8597C28.5166 26.6257 30.4195 27.3055 32.0308 28.7739C33.5885 30.1935 34.6247 32.1346 34.874 34.0991C35.0123 35.1887 34.8695 35.9878 34.4373 36.5414C33.5816 37.6375 31.5173 37.8842 29.1264 38.1703C28.7984 38.2096 27.4512 38.3806 27.1234 38.4245C24.7371 38.7447 22.6764 39.0217 21.574 38.1742C21.0171 37.746 20.6792 37.0081 20.5409 35.9184C20.2915 33.9539 20.8102 31.8156 21.9638 30.0517ZM4.40092 12.7078C4.09304 12.0751 4.11562 11.3518 4.47513 10.7295C4.86941 10.0467 5.575 9.65691 6.36261 9.68636C11.098 9.8648 13.7654 11.762 15.0372 13.0428C14.1487 14.2244 13.4737 15.444 12.9707 16.5322C9.15098 14.069 5.43726 12.9806 4.40092 12.7078ZM42.0492 5.15665C42.8048 4.93132 43.5852 5.13254 44.1378 5.69515C44.6413 6.20785 44.8439 6.90254 44.7039 7.5921C43.7682 8.11527 40.4442 10.0969 37.3613 13.4363C36.6021 12.5083 35.644 11.496 34.4886 10.5738C36.4754 7.1409 40.3989 5.64948 42.0492 5.15665ZM42.1481 18.8596C41.8736 18.5683 41.5844 18.2911 41.2815 18.0293C40.2056 17.1007 38.2311 14.5737 38.1485 14.4593C40.3543 12.033 42.7545 10.3112 44.2042 9.38172C43.7732 11.1332 43.6195 12.7011 43.7501 14.0557C43.9095 15.7139 43.3143 17.4796 42.1481 18.8596Z" fill="white"/>
<path d="M32.5451 24.567L32.6644 25.5071C32.6856 25.6554 32.7631 25.7896 32.88 25.8806C32.997 25.9717 33.1441 26.0124 33.2896 25.9939C33.4351 25.9755 33.5673 25.8993 33.6578 25.7819C33.7483 25.6645 33.7898 25.5153 33.7733 25.3664L33.654 24.4263C33.6456 24.351 33.6227 24.278 33.5865 24.2117C33.5503 24.1454 33.5016 24.087 33.4432 24.04C33.3848 23.993 33.3179 23.9582 33.2463 23.9378C33.1748 23.9174 33.1 23.9117 33.0265 23.921C32.9529 23.9303 32.8819 23.9545 32.8177 23.9922C32.7536 24.0299 32.6974 24.0802 32.6526 24.1404C32.6078 24.2005 32.5752 24.2692 32.5568 24.3424C32.5383 24.4157 32.5343 24.492 32.5451 24.567ZM18.6821 26.3267L18.8015 27.2668C18.8221 27.4156 18.8993 27.5505 19.0164 27.6421C19.1335 27.7338 19.281 27.7748 19.427 27.7563C19.573 27.7377 19.7056 27.6612 19.7961 27.5432C19.8866 27.4252 19.9277 27.2753 19.9104 27.126L19.7911 26.1859C19.7828 26.1106 19.7598 26.0377 19.7237 25.9713C19.6875 25.905 19.6388 25.8467 19.5804 25.7996C19.522 25.7526 19.455 25.7179 19.3835 25.6974C19.3119 25.677 19.2372 25.6713 19.1636 25.6806C19.09 25.69 19.0191 25.7142 18.9549 25.7518C18.8907 25.7895 18.8346 25.8399 18.7898 25.9C18.745 25.9601 18.7124 26.0288 18.6939 26.1021C18.6754 26.1753 18.6714 26.2517 18.6821 26.3267ZM24.6914 36.3889C26.004 36.2223 26.9337 34.9956 26.7635 33.6547C26.5933 32.3139 25.3867 31.3587 24.074 31.5254C22.7614 31.692 21.8316 32.9184 22.0017 34.2592C22.1719 35.6 23.3786 36.5555 24.6914 36.3889ZM24.2178 32.6577C24.9193 32.5686 25.5637 33.0792 25.6546 33.7955C25.7456 34.5121 25.2491 35.1672 24.5476 35.2562C23.8463 35.3452 23.2016 34.8347 23.1107 34.1185C23.0198 33.4022 23.5165 32.7467 24.2178 32.6577ZM30.5826 35.6411C31.8953 35.4745 32.8247 34.2479 32.6545 32.907C32.4843 31.5661 31.278 30.611 29.9653 30.7776C28.6523 30.9443 27.7228 32.1706 27.893 33.5114C28.0632 34.8522 29.2696 35.8078 30.5826 35.6411ZM30.109 31.9099C30.8103 31.8209 31.455 32.3315 31.5459 33.0477C31.6369 33.7643 31.1401 34.4194 30.4389 34.5084C29.7373 34.5975 29.0925 34.087 29.0016 33.3707C28.9107 32.6545 29.4074 31.9989 30.109 31.9099Z" stroke="white"/>
<path d="M45.0447 4.80453C44.1561 3.89948 42.9002 3.57537 41.6856 3.93841C36.8803 5.37331 34.5428 8.00983 33.4581 9.81699C33.3989 9.77683 30.0591 6.81738 24.2233 7.55811C18.3873 8.29888 15.8925 11.9996 15.8445 12.0534C14.3907 10.6285 11.4574 8.60631 6.41048 8.41598C5.14336 8.36821 4.00839 8.99544 3.37394 10.0938C2.74364 11.1853 2.76913 12.5268 3.44026 13.5951C4.6827 15.5725 5.43727 17.366 5.68369 18.9265C5.89228 20.2488 5.99115 20.9346 6.92156 22.0265C7.06626 22.196 7.46801 22.3642 7.81761 22.098C8.09696 21.8854 8.1169 21.469 7.88942 21.2019C7.11076 20.2886 7.11143 19.8191 6.93929 18.7281C6.72719 17.3835 6.1866 15.9034 5.33095 14.3149C6.96506 14.8513 9.71686 15.9178 12.4636 17.7195C12.4122 17.8508 11.132 20.7911 10.3222 21.9589C9.10877 23.7091 7.32355 27.332 8.99561 31.9369C9.8327 34.2413 11.5584 35.8308 14.1252 36.6617C16.0367 37.28 18.0569 37.3489 19.5351 37.2774C19.7973 38.1044 20.2151 38.733 20.799 39.1822C22.321 40.3524 24.6249 40.0427 27.2928 39.6847C27.9421 39.5976 28.96 39.4778 29.2628 39.4394C32.9445 38.9721 34.3971 38.6592 35.4396 37.3239C35.8927 36.7432 36.1406 36.0299 36.1878 35.1637C37.7251 34.8454 39.0475 34.4131 40.7915 33.2394C40.8608 33.1928 40.9202 33.133 40.9663 33.0634C41.0124 32.9938 41.0444 32.9158 41.0604 32.8339C41.0764 32.7519 41.0761 32.6677 41.0595 32.5858C41.043 32.504 41.0104 32.4262 40.9638 32.357C40.9172 32.2877 40.8574 32.2283 40.7878 32.1822C40.7182 32.1361 40.6402 32.1041 40.5583 32.0881C40.4763 32.0721 40.392 32.0724 40.3102 32.089C40.2284 32.1055 40.1506 32.1381 40.0814 32.1847C38.577 33.1968 37.5199 33.5734 36.1269 33.8774C35.8265 31.639 34.6488 29.4396 32.8872 27.8342C30.996 26.1109 28.7323 25.3171 26.5132 25.5987C24.2942 25.8804 22.3005 27.2146 20.8999 29.3558C19.5951 31.3507 19.0041 33.775 19.2728 36.0176C12.9101 36.279 10.8526 33.3251 10.1908 31.503C8.78784 27.6397 10.0562 24.5745 11.3672 22.6835C12.2379 21.4275 12.9588 20.0349 13.51 18.5441C14.7187 15.2743 17.7385 9.66296 24.3834 8.81952C31.0283 7.97608 35.3543 12.655 37.3416 15.5191C38.2478 16.825 39.2937 17.9933 40.4506 18.992C42.1925 20.4955 44.1864 23.1465 43.7931 27.2378C43.681 28.405 43.4205 28.7074 43.1169 29.1055C43.0663 29.1719 43.0292 29.2476 43.0079 29.3283C42.9866 29.409 42.9813 29.4931 42.9925 29.5758C43.0037 29.6586 43.0311 29.7383 43.0731 29.8104C43.1151 29.8825 43.1709 29.9457 43.2373 29.9963C43.3037 30.0469 43.3793 30.0839 43.46 30.1053C43.5407 30.1266 43.6248 30.1319 43.7075 30.1207C43.7902 30.1096 43.8699 30.0822 43.9421 30.0403C44.0142 29.9983 44.0774 29.9426 44.128 29.8762C44.5606 29.3086 44.9234 28.7661 45.0586 27.3595C45.3798 24.0172 44.2435 21.5272 42.9776 19.8432C44.4547 18.1831 45.2139 15.9958 45.0153 13.9341C44.864 12.3619 45.1466 10.4364 45.8556 8.21167C46.2386 7.00921 45.9277 5.7039 45.0447 4.80453ZM21.9638 30.0517C23.1572 28.2273 24.8296 27.0937 26.6733 26.8597C28.5166 26.6257 30.4195 27.3055 32.0308 28.7739C33.5885 30.1935 34.6247 32.1346 34.874 34.0991C35.0123 35.1887 34.8695 35.9878 34.4373 36.5414C33.5816 37.6375 31.5173 37.8842 29.1264 38.1703C28.7984 38.2096 27.4512 38.3806 27.1234 38.4245C24.7371 38.7447 22.6764 39.0217 21.574 38.1742C21.0171 37.746 20.6792 37.0081 20.5409 35.9184C20.2915 33.9539 20.8102 31.8156 21.9638 30.0517ZM4.40092 12.7078C4.09304 12.0751 4.11562 11.3518 4.47513 10.7295C4.86941 10.0467 5.575 9.65691 6.36261 9.68636C11.098 9.8648 13.7654 11.762 15.0372 13.0428C14.1487 14.2244 13.4737 15.444 12.9707 16.5322C9.15098 14.069 5.43726 12.9806 4.40092 12.7078ZM42.0492 5.15665C42.8048 4.93132 43.5852 5.13254 44.1378 5.69515C44.6413 6.20785 44.8439 6.90254 44.7039 7.5921C43.7682 8.11527 40.4442 10.0969 37.3613 13.4363C36.6021 12.5083 35.644 11.496 34.4886 10.5738C36.4754 7.1409 40.3989 5.64948 42.0492 5.15665ZM42.1481 18.8596C41.8736 18.5683 41.5844 18.2911 41.2815 18.0293C40.2056 17.1007 38.2311 14.5737 38.1485 14.4593C40.3543 12.033 42.7545 10.3112 44.2042 9.38172C43.7732 11.1332 43.6195 12.7011 43.7501 14.0557C43.9095 15.7139 43.3143 17.4796 42.1481 18.8596Z" stroke="white"/>
</g>
<defs>
<clipPath id="clip0_4_342">
<rect width="45.9311" height="45.9311" fill="white" transform="translate(0 5.78363) rotate(-7.23389)"/>
</clipPath>
</defs>
</svg>
