<svg width="226" height="73" viewBox="0 0 226 73" fill="none" xmlns="http://www.w3.org/2000/svg">
<path d="M67.92 21.4C67.92 19.544 68.88 17.992 70.8 16.744C72.752 15.496 75.728 14.872 79.728 14.872C84.656 14.872 87.12 17.048 87.12 21.4C87.12 22.776 86.576 24.088 85.488 25.336C84.912 25.976 83.616 26.776 81.6 27.736C80.48 28.248 79.04 28.696 77.28 29.08C75.552 29.464 74.672 29.656 74.64 29.656C73.68 29.656 73.2 29.176 73.2 28.216C73.2 27.512 73.68 27.048 74.64 26.824C75.6 26.568 76.272 26.392 76.656 26.296C77.072 26.2 77.76 26.024 78.72 25.768C79.68 25.48 80.4 25.208 80.88 24.952C81.36 24.696 81.904 24.392 82.512 24.04C83.664 23.368 84.24 22.424 84.24 21.208C84.24 19.96 83.936 19.08 83.328 18.568C82.752 18.024 81.584 17.752 79.824 17.752C78.064 17.752 76.56 17.88 75.312 18.136C74.064 18.392 73.136 18.712 72.528 19.096C71.376 19.864 70.8 20.648 70.8 21.448C70.8 23.56 71.232 26.696 72.096 30.856C72.992 35.016 73.632 37.784 74.016 39.16C74.432 40.504 74.64 41.304 74.64 41.56C74.64 42.52 74.16 43 73.2 43C72.752 43 72.432 42.888 72.24 42.664C72.048 42.44 71.728 41.496 71.28 39.832C70.832 38.168 70.16 35.256 69.264 31.096C68.368 26.904 67.92 23.672 67.92 21.4ZM100.151 19.192C100.663 19.192 101.191 19.432 101.734 19.912C102.279 20.36 102.551 20.84 102.551 21.352C102.551 21.832 102.327 22.2 101.879 22.456C101.463 22.712 100.999 22.84 100.487 22.84C99.9745 22.84 99.5425 22.616 99.1905 22.168C98.8705 21.688 98.7105 21.176 98.7105 20.632C98.7105 19.672 99.1905 19.192 100.151 19.192ZM95.8305 37.048C94.0385 38.968 92.2145 40.344 90.3585 41.176C89.7825 41.432 89.3185 41.56 88.9665 41.56C88.0065 41.56 87.5265 41.08 87.5265 40.12C87.5265 39.512 88.0065 39.016 88.9665 38.632C89.4785 38.44 90.1505 38.056 90.9825 37.48C91.8465 36.904 92.4225 36.472 92.7105 36.184C92.9985 35.896 93.4945 35.368 94.1985 34.6C94.9345 33.832 95.5105 33.256 95.9265 32.872C96.3425 32.456 96.9025 32.04 97.6065 31.624C98.3425 31.208 99.0145 31 99.6225 31C100.871 31 101.831 31.448 102.503 32.344C103.175 33.24 103.575 34.232 103.703 35.32C104.055 38.2 104.615 39.64 105.383 39.64C105.991 39.64 106.775 39.48 107.735 39.16C108.695 38.84 109.223 38.68 109.319 38.68C110.279 38.68 110.759 39.16 110.759 40.12C110.759 40.824 110.279 41.336 109.319 41.656C107.591 42.232 106.183 42.52 105.095 42.52C104.039 42.52 103.175 42.072 102.503 41.176C101.831 40.28 101.431 39.288 101.303 38.2C100.951 35.32 100.391 33.88 99.6225 33.88C99.2065 33.88 98.7265 34.152 98.1825 34.696C97.6705 35.208 97.2545 35.624 96.9345 35.944C96.6145 36.232 96.2465 36.6 95.8305 37.048ZM118.771 44.296C118.579 44.04 118.003 43.304 117.043 42.088C116.083 40.872 115.427 40.024 115.075 39.544C114.755 39.032 114.291 38.296 113.683 37.336C112.627 35.672 112.099 33.976 112.099 32.248C112.099 30.52 112.563 29 113.491 27.688C114.451 26.376 115.651 25.72 117.091 25.72C118.531 25.72 119.795 26.152 120.883 27.016C121.971 27.88 122.691 29.112 123.043 30.712C123.107 30.968 123.139 31.224 123.139 31.48C123.139 32.44 122.659 32.92 121.699 32.92C120.995 32.92 120.515 32.44 120.259 31.48C119.811 29.56 118.851 28.6 117.379 28.6C116.579 28.6 115.971 29 115.555 29.8C115.171 30.568 114.979 31.336 114.979 32.104C114.979 32.872 115.075 33.56 115.267 34.168C115.491 34.776 115.843 35.48 116.323 36.28C116.835 37.048 117.251 37.656 117.571 38.104C118.435 39.32 119.571 40.776 120.979 42.472C123.091 40.904 125.219 39.752 127.363 39.016C128.035 38.792 128.419 38.68 128.515 38.68C129.475 38.68 129.955 39.16 129.955 40.12C129.955 40.824 129.475 41.336 128.515 41.656C126.627 42.264 124.659 43.32 122.611 44.824C124.115 47.16 124.867 49.128 124.867 50.728C124.867 52.328 124.227 53.928 122.947 55.528C121.667 57.16 120.275 57.976 118.771 57.976C117.267 57.976 116.019 57.464 115.027 56.44C114.035 55.416 113.539 54.136 113.539 52.6C113.539 50.232 115.283 47.464 118.771 44.296ZM120.403 46.648C117.747 49.144 116.419 51.128 116.419 52.6C116.419 53.368 116.627 53.976 117.043 54.424C117.459 54.872 118.019 55.096 118.723 55.096C119.459 55.096 120.179 54.568 120.883 53.512C121.619 52.456 121.987 51.448 121.987 50.488C121.987 49.56 121.459 48.28 120.403 46.648ZM145.238 43C142.166 43 139.59 40.696 137.51 36.088C136.358 37.016 134.902 38.04 133.142 39.16C131.382 40.28 130.23 40.968 129.686 41.224C129.142 41.448 128.694 41.56 128.341 41.56C127.381 41.56 126.901 41.08 126.901 40.12C126.901 39.512 127.381 39.016 128.341 38.632C128.886 38.408 130.022 37.736 131.75 36.616C133.51 35.464 134.998 34.392 136.214 33.4C135.51 31.096 135.158 28.536 135.158 25.72C135.158 21.464 135.942 17.784 137.51 14.68C139.11 11.544 140.886 9.976 142.838 9.976C143.67 9.976 144.39 10.232 144.998 10.744C145.606 11.256 146.054 11.896 146.342 12.664C146.886 14.136 147.158 15.736 147.158 17.464C147.158 19.192 146.966 20.952 146.582 22.744C146.198 24.504 145.734 25.992 145.19 27.208C144.678 28.424 144.054 29.56 143.318 30.616C142.23 32.184 141.094 33.448 139.91 34.408C141.638 38.216 143.414 40.12 145.238 40.12C146.486 40.12 147.83 39.88 149.27 39.4C150.71 38.92 151.478 38.68 151.574 38.68C152.534 38.68 153.014 39.16 153.014 40.12C153.014 40.824 152.534 41.336 151.574 41.656C148.886 42.552 146.774 43 145.238 43ZM142.838 12.856C142.294 12.856 141.59 13.528 140.726 14.872C138.934 17.688 138.038 21.304 138.038 25.72C138.038 27.96 138.278 29.928 138.758 31.624C139.814 30.632 140.79 29.352 141.686 27.784C143.414 24.776 144.278 21.208 144.278 17.08C144.278 16.152 144.15 15.224 143.894 14.296C143.638 13.336 143.286 12.856 142.838 12.856ZM162.588 19.192C163.1 19.192 163.628 19.432 164.172 19.912C164.716 20.36 164.988 20.84 164.988 21.352C164.988 21.832 164.764 22.2 164.316 22.456C163.9 22.712 163.436 22.84 162.924 22.84C162.412 22.84 161.98 22.616 161.628 22.168C161.308 21.688 161.148 21.176 161.148 20.632C161.148 19.672 161.628 19.192 162.588 19.192ZM158.268 37.048C156.476 38.968 154.652 40.344 152.796 41.176C152.22 41.432 151.756 41.56 151.404 41.56C150.444 41.56 149.964 41.08 149.964 40.12C149.964 39.512 150.444 39.016 151.404 38.632C151.916 38.44 152.588 38.056 153.42 37.48C154.284 36.904 154.86 36.472 155.148 36.184C155.436 35.896 155.932 35.368 156.636 34.6C157.372 33.832 157.948 33.256 158.364 32.872C158.78 32.456 159.34 32.04 160.044 31.624C160.78 31.208 161.452 31 162.06 31C163.308 31 164.268 31.448 164.94 32.344C165.612 33.24 166.012 34.232 166.14 35.32C166.492 38.2 167.052 39.64 167.82 39.64C168.428 39.64 169.212 39.48 170.172 39.16C171.132 38.84 171.66 38.68 171.756 38.68C172.716 38.68 173.196 39.16 173.196 40.12C173.196 40.824 172.716 41.336 171.756 41.656C170.028 42.232 168.62 42.52 167.532 42.52C166.476 42.52 165.612 42.072 164.94 41.176C164.268 40.28 163.868 39.288 163.74 38.2C163.388 35.32 162.828 33.88 162.06 33.88C161.644 33.88 161.164 34.152 160.62 34.696C160.108 35.208 159.692 35.624 159.372 35.944C159.052 36.232 158.684 36.6 158.268 37.048ZM171.56 38.632C173.288 37.928 174.648 37.192 175.64 36.424C176.632 35.624 177.848 34.472 179.288 32.968C180.728 31.464 181.672 30.52 182.12 30.136C183.656 28.792 185.288 28.12 187.016 28.12C188.072 28.12 189.224 28.376 190.472 28.888C191.752 29.4 192.936 30.312 194.024 31.624C195.112 32.936 195.656 34.504 195.656 36.328C195.656 38.12 194.6 39.688 192.488 41.032C190.376 42.344 187.592 43 184.136 43C183.176 43 182.696 42.52 182.696 41.56C182.696 40.6 183.176 40.12 184.136 40.12C186.76 40.12 188.856 39.704 190.424 38.872C191.992 38.008 192.776 37.144 192.776 36.28C192.776 35.096 192.392 34.072 191.624 33.208C190.28 31.736 188.744 31 187.016 31C186.024 31 185.048 31.416 184.088 32.248C183.8 32.504 182.872 33.432 181.304 35.032C179.768 36.632 178.488 37.832 177.464 38.632C176.472 39.432 175.32 40.12 174.008 40.696C172.728 41.272 171.912 41.56 171.56 41.56C170.6 41.56 170.12 41.08 170.12 40.12C170.12 39.512 170.6 39.016 171.56 38.632ZM225.034 40.12C225.034 41.4 223.562 42.04 220.618 42.04C219.242 42.04 218.17 41.736 217.402 41.128C216.666 40.52 216.298 39.464 216.298 37.96C216.298 36.456 216.17 35.16 215.914 34.072C215.658 32.984 215.306 32.44 214.858 32.44C213.514 32.44 212.234 33.688 211.018 36.184C210.506 37.208 209.962 38.248 209.386 39.304C208.81 40.328 208.042 41.208 207.082 41.944C206.154 42.648 205.066 43 203.818 43C200.938 43 199.498 40.216 199.498 34.648C199.498 30.648 199.93 26.76 200.794 22.984C201.69 19.208 202.922 16.104 204.49 13.672C206.09 11.208 207.77 9.976 209.53 9.976C211.29 9.976 212.618 10.616 213.514 11.896C214.41 13.176 214.858 14.84 214.858 16.888C214.858 18.904 214.282 20.904 213.13 22.888C212.01 24.84 210.634 26.424 209.002 27.64C208.202 28.28 207.594 28.6 207.178 28.6C206.218 28.6 205.738 28.12 205.738 27.16C205.738 26.776 206.282 26.168 207.37 25.336C208.458 24.504 209.498 23.32 210.49 21.784C211.482 20.216 211.978 18.392 211.978 16.312C211.978 15.448 211.786 14.664 211.402 13.96C211.018 13.224 210.41 12.856 209.578 12.856C208.618 12.856 207.578 13.864 206.458 15.88C205.37 17.864 204.41 20.584 203.578 24.04C202.778 27.496 202.378 31.048 202.378 34.696C202.378 38.312 202.858 40.12 203.818 40.12C205.162 40.12 206.442 38.872 207.658 36.376C208.17 35.352 208.714 34.328 209.29 33.304C209.866 32.248 210.618 31.368 211.546 30.664C212.506 29.928 213.61 29.56 214.858 29.56C217.738 29.56 219.178 32.28 219.178 37.72C219.178 38.68 219.642 39.16 220.57 39.16C221.53 39.16 222.25 39.08 222.73 38.92C223.21 38.76 223.498 38.68 223.594 38.68C224.554 38.68 225.034 39.16 225.034 40.12Z" fill="url(#paint0_linear_4_352)"/>
<g clip-path="url(#clip0_4_352)">
<path d="M41.6121 38.4115L41.7647 39.6135C41.7918 39.8031 41.8909 39.9746 42.0404 40.0911C42.1899 40.2075 42.378 40.2595 42.564 40.2359C42.7501 40.2123 42.9192 40.1149 43.0349 39.9648C43.1506 39.8147 43.2036 39.6239 43.1825 39.4335L43.03 38.2315C43.0193 38.1352 42.99 38.042 42.9437 37.9572C42.8975 37.8724 42.8352 37.7978 42.7605 37.7376C42.6858 37.6775 42.6003 37.6331 42.5088 37.6069C42.4173 37.5808 42.3217 37.5735 42.2276 37.5855C42.1335 37.5974 42.0428 37.6284 41.9608 37.6765C41.8787 37.7247 41.8069 37.7891 41.7496 37.8659C41.6924 37.9428 41.6507 38.0306 41.6271 38.1243C41.6035 38.218 41.5984 38.3156 41.6121 38.4115ZM23.8869 40.6614L24.0395 41.8634C24.0658 42.0537 24.1646 42.2262 24.3143 42.3433C24.4641 42.4605 24.6527 42.5129 24.8393 42.4892C25.026 42.4655 25.1955 42.3676 25.3112 42.2168C25.4269 42.0659 25.4795 41.8743 25.4574 41.6834L25.3049 40.4814C25.2942 40.3851 25.2649 40.2918 25.2186 40.207C25.1724 40.1222 25.1101 40.0476 25.0354 39.9875C24.9607 39.9273 24.8752 39.8829 24.7837 39.8568C24.6922 39.8307 24.5966 39.8234 24.5025 39.8353C24.4084 39.8473 24.3177 39.8782 24.2357 39.9264C24.1536 39.9745 24.0818 40.0389 24.0245 40.1158C23.9673 40.1927 23.9256 40.2805 23.902 40.3742C23.8784 40.4678 23.8732 40.5655 23.8869 40.6614ZM31.5704 53.5269C33.2488 53.3139 34.4375 51.7455 34.2198 50.031C34.0022 48.3166 32.4594 47.0954 30.781 47.3084C29.1027 47.5215 27.9138 49.0895 28.1314 50.8039C28.349 52.5182 29.8919 53.74 31.5704 53.5269ZM30.9648 48.7562C31.8618 48.6423 32.6857 49.2952 32.802 50.211C32.9183 51.1272 32.2835 51.9649 31.3865 52.0787C30.4898 52.1925 29.6655 51.5398 29.5493 50.624C29.433 49.7082 30.0682 48.87 30.9648 48.7562ZM39.1029 52.5708C40.7813 52.3578 41.9697 50.7894 41.7521 49.075C41.5344 47.3605 39.992 46.1393 38.3136 46.3523C36.6348 46.5654 35.4464 48.1334 35.664 49.8477C35.8816 51.5621 37.4241 52.7839 39.1029 52.5708ZM38.4973 47.8001C39.394 47.6863 40.2183 48.3391 40.3346 49.2549C40.4509 50.1711 39.8157 51.0088 38.9191 51.1226C38.022 51.2365 37.1977 50.5837 37.0815 49.6679C36.9652 48.7521 37.6003 47.9139 38.4973 47.8001Z" fill="url(#paint1_linear_4_352)"/>
<path d="M57.5942 13.1431C56.458 11.9859 54.8523 11.5715 53.2992 12.0357C47.1552 13.8703 44.1664 17.2414 42.7795 19.552C42.7038 19.5007 38.4335 15.7167 30.9719 16.6638C23.5099 17.611 20.3201 22.3427 20.2588 22.4115C18.3998 20.5896 14.6494 18.004 8.19636 17.7607C6.57621 17.6996 5.12504 18.5016 4.31382 19.906C3.50793 21.3015 3.54051 23.0168 4.39863 24.3828C5.98721 26.911 6.952 29.2043 7.26708 31.1995C7.53378 32.8902 7.6602 33.767 8.84983 35.1632C9.03484 35.3799 9.54852 35.595 9.99552 35.2546C10.3527 34.9827 10.3782 34.4504 10.0873 34.1088C9.09173 32.9411 9.09259 32.3407 8.8725 30.9458C8.6013 29.2266 7.91011 27.3342 6.81606 25.3031C8.90544 25.9889 12.4239 27.3526 15.9359 29.6562C15.8702 29.824 14.2333 33.5835 13.1979 35.0768C11.6464 37.3145 9.36381 41.9468 11.5017 47.8347C12.572 50.7811 14.7785 52.8134 18.0604 53.8757C20.5044 54.6663 23.0876 54.7545 24.9776 54.663C25.3127 55.7204 25.847 56.5242 26.5936 57.0985C28.5396 58.5947 31.4854 58.1988 34.8966 57.741C35.7267 57.6296 37.0283 57.4764 37.4153 57.4273C42.1228 56.8298 43.9801 56.4298 45.3131 54.7224C45.8924 53.9799 46.2093 53.0679 46.2697 51.9604C48.2354 51.5535 49.9261 51.0007 52.1561 49.5C52.2446 49.4404 52.3205 49.3639 52.3795 49.275C52.4385 49.186 52.4794 49.0863 52.4999 48.9815C52.5203 48.8767 52.52 48.769 52.4988 48.6643C52.4776 48.5597 52.436 48.4603 52.3763 48.3717C52.3167 48.2832 52.2402 48.2072 52.1513 48.1483C52.0623 48.0893 51.9626 48.0484 51.8578 48.0279C51.753 48.0075 51.6453 48.0078 51.5406 48.029C51.436 48.0502 51.3366 48.0918 51.248 48.1514C49.3246 49.4456 47.973 49.927 46.1919 50.3157C45.8078 47.4537 44.3019 44.6416 42.0496 42.5889C39.6315 40.3854 36.7371 39.3705 33.8998 39.7306C31.0625 40.0907 28.5134 41.7967 26.7225 44.5344C25.0542 47.0851 24.2986 50.1847 24.6421 53.0522C16.5067 53.3865 13.876 49.6096 13.0299 47.2798C11.2361 42.3401 12.8578 38.4211 14.534 36.0032C15.6473 34.3972 16.5691 32.6167 17.2739 30.7105C18.8193 26.5298 22.6804 19.3551 31.1766 18.2767C39.6728 17.1982 45.2041 23.1808 47.7449 26.8428C48.9036 28.5125 50.241 30.0062 51.7202 31.2832C53.9473 33.2056 56.4968 36.5952 55.9939 41.8264C55.8505 43.3187 55.5174 43.7053 55.1293 44.2144C55.0646 44.2993 55.0172 44.3961 54.9899 44.4992C54.9626 44.6024 54.956 44.71 54.9703 44.8157C54.9846 44.9215 55.0195 45.0234 55.0732 45.1157C55.127 45.2079 55.1983 45.2887 55.2832 45.3533C55.3681 45.418 55.4649 45.4654 55.568 45.4927C55.6712 45.52 55.7787 45.5267 55.8845 45.5125C55.9902 45.4982 56.0921 45.4632 56.1844 45.4096C56.2766 45.3559 56.3574 45.2847 56.4221 45.1998C56.9752 44.4741 57.4392 43.7805 57.6119 41.9819C58.0226 37.7084 56.5698 34.5247 54.9512 32.3716C56.8399 30.249 57.8105 27.4523 57.5566 24.8162C57.3632 22.8059 57.7244 20.344 58.631 17.4995C59.1207 15.962 58.7232 14.293 57.5942 13.1431ZM28.0829 45.4242C29.6087 43.0915 31.7471 41.6421 34.1044 41.3429C36.4613 41.0437 38.8944 41.9129 40.9545 43.7904C42.9462 45.6055 44.2711 48.0874 44.59 50.5992C44.7668 51.9923 44.5841 53.0141 44.0315 53.722C42.9374 55.1234 40.2981 55.4388 37.2409 55.8046C36.8216 55.8549 35.0991 56.0735 34.68 56.1297C31.6289 56.5391 28.994 56.8932 27.5845 55.8096C26.8724 55.2621 26.4404 54.3186 26.2636 52.9254C25.9447 50.4136 26.6079 47.6795 28.0829 45.4242ZM5.62693 23.2482C5.23327 22.4392 5.26214 21.5144 5.72181 20.7188C6.22593 19.8458 7.12811 19.3474 8.13515 19.385C14.1899 19.6132 17.6004 22.0389 19.2265 23.6766C18.0905 25.1874 17.2274 26.7467 16.5843 28.1382C11.7004 24.9886 6.95199 23.5971 5.62693 23.2482ZM53.7641 13.5933C54.7302 13.3052 55.728 13.5625 56.4346 14.2818C57.0785 14.9374 57.3375 15.8256 57.1584 16.7073C55.9621 17.3762 51.7119 19.9099 47.7702 24.1797C46.7995 22.9931 45.5744 21.6989 44.0971 20.5197C46.6375 16.1304 51.654 14.2234 53.7641 13.5933ZM53.8906 31.114C53.5396 30.7414 53.1698 30.387 52.7826 30.0523C51.4069 28.8649 48.8823 25.6339 48.7767 25.4877C51.597 22.3855 54.666 20.1839 56.5195 18.9955C55.9684 21.235 55.7719 23.2397 55.9389 24.9716C56.1427 27.0918 55.3817 29.3495 53.8906 31.114Z" fill="url(#paint2_linear_4_352)"/>
<path d="M41.6121 38.4115L41.7647 39.6135C41.7918 39.8031 41.8909 39.9746 42.0404 40.0911C42.1899 40.2075 42.378 40.2595 42.564 40.2359C42.7501 40.2123 42.9192 40.1149 43.0349 39.9648C43.1506 39.8147 43.2036 39.6239 43.1825 39.4335L43.03 38.2315C43.0193 38.1352 42.99 38.042 42.9437 37.9572C42.8975 37.8724 42.8352 37.7978 42.7605 37.7376C42.6858 37.6775 42.6003 37.6331 42.5088 37.6069C42.4173 37.5808 42.3217 37.5735 42.2276 37.5855C42.1335 37.5974 42.0428 37.6284 41.9608 37.6765C41.8787 37.7247 41.8069 37.7891 41.7496 37.8659C41.6924 37.9428 41.6507 38.0306 41.6271 38.1243C41.6035 38.218 41.5984 38.3156 41.6121 38.4115ZM23.8869 40.6614L24.0395 41.8634C24.0658 42.0537 24.1646 42.2262 24.3143 42.3433C24.4641 42.4605 24.6527 42.5129 24.8393 42.4892C25.026 42.4655 25.1955 42.3676 25.3112 42.2168C25.4269 42.0659 25.4795 41.8743 25.4574 41.6834L25.3049 40.4814C25.2942 40.3851 25.2649 40.2918 25.2186 40.207C25.1724 40.1222 25.1101 40.0476 25.0354 39.9875C24.9607 39.9273 24.8752 39.8829 24.7837 39.8568C24.6922 39.8307 24.5966 39.8234 24.5025 39.8353C24.4084 39.8473 24.3177 39.8782 24.2357 39.9264C24.1536 39.9745 24.0818 40.0389 24.0245 40.1158C23.9673 40.1927 23.9256 40.2805 23.902 40.3742C23.8784 40.4678 23.8732 40.5655 23.8869 40.6614ZM31.5704 53.5269C33.2488 53.3139 34.4375 51.7455 34.2198 50.031C34.0022 48.3166 32.4594 47.0954 30.781 47.3084C29.1027 47.5215 27.9138 49.0895 28.1314 50.8039C28.349 52.5182 29.8919 53.74 31.5704 53.5269ZM30.9648 48.7562C31.8618 48.6423 32.6857 49.2952 32.802 50.211C32.9183 51.1272 32.2835 51.9649 31.3865 52.0787C30.4898 52.1925 29.6655 51.5398 29.5493 50.624C29.433 49.7082 30.0682 48.87 30.9648 48.7562ZM39.1029 52.5708C40.7813 52.3578 41.9697 50.7894 41.7521 49.075C41.5344 47.3605 39.992 46.1393 38.3136 46.3523C36.6348 46.5654 35.4464 48.1334 35.664 49.8477C35.8816 51.5621 37.4241 52.7839 39.1029 52.5708ZM38.4973 47.8001C39.394 47.6863 40.2183 48.3391 40.3346 49.2549C40.4509 50.1711 39.8157 51.0088 38.9191 51.1226C38.022 51.2365 37.1977 50.5837 37.0815 49.6679C36.9652 48.7521 37.6003 47.9139 38.4973 47.8001Z" stroke="url(#paint3_linear_4_352)"/>
<path d="M57.5942 13.1431C56.458 11.9859 54.8523 11.5715 53.2992 12.0357C47.1552 13.8703 44.1664 17.2414 42.7795 19.552C42.7038 19.5007 38.4335 15.7167 30.9719 16.6638C23.5099 17.611 20.3201 22.3427 20.2588 22.4115C18.3998 20.5896 14.6494 18.004 8.19636 17.7607C6.57621 17.6996 5.12504 18.5016 4.31382 19.906C3.50793 21.3015 3.54051 23.0168 4.39863 24.3828C5.98721 26.911 6.952 29.2043 7.26708 31.1995C7.53378 32.8902 7.6602 33.767 8.84983 35.1632C9.03484 35.3799 9.54852 35.595 9.99552 35.2546C10.3527 34.9827 10.3782 34.4504 10.0873 34.1088C9.09173 32.9411 9.09259 32.3407 8.8725 30.9458C8.6013 29.2266 7.91011 27.3342 6.81606 25.3031C8.90544 25.9889 12.4239 27.3526 15.9359 29.6562C15.8702 29.824 14.2333 33.5835 13.1979 35.0768C11.6464 37.3145 9.36381 41.9468 11.5017 47.8347C12.572 50.7811 14.7785 52.8134 18.0604 53.8757C20.5044 54.6663 23.0876 54.7545 24.9776 54.663C25.3127 55.7204 25.847 56.5242 26.5936 57.0985C28.5396 58.5947 31.4854 58.1988 34.8966 57.741C35.7267 57.6296 37.0283 57.4764 37.4153 57.4273C42.1228 56.8298 43.9801 56.4298 45.3131 54.7224C45.8924 53.9799 46.2093 53.0679 46.2697 51.9604C48.2354 51.5535 49.9261 51.0007 52.1561 49.5C52.2446 49.4404 52.3205 49.3639 52.3795 49.275C52.4385 49.186 52.4794 49.0863 52.4999 48.9815C52.5203 48.8767 52.52 48.769 52.4988 48.6643C52.4776 48.5597 52.436 48.4603 52.3763 48.3717C52.3167 48.2832 52.2402 48.2072 52.1513 48.1483C52.0623 48.0893 51.9626 48.0484 51.8578 48.0279C51.753 48.0075 51.6453 48.0078 51.5406 48.029C51.436 48.0502 51.3366 48.0918 51.248 48.1514C49.3246 49.4456 47.973 49.927 46.1919 50.3157C45.8078 47.4537 44.3019 44.6416 42.0496 42.5889C39.6315 40.3854 36.7371 39.3705 33.8998 39.7306C31.0625 40.0907 28.5134 41.7967 26.7225 44.5344C25.0542 47.0851 24.2986 50.1847 24.6421 53.0522C16.5067 53.3865 13.876 49.6096 13.0299 47.2798C11.2361 42.3401 12.8578 38.4211 14.534 36.0032C15.6473 34.3972 16.5691 32.6167 17.2739 30.7105C18.8193 26.5298 22.6804 19.3551 31.1766 18.2767C39.6728 17.1982 45.2041 23.1808 47.7449 26.8428C48.9036 28.5125 50.241 30.0062 51.7202 31.2832C53.9473 33.2056 56.4968 36.5952 55.9939 41.8264C55.8505 43.3187 55.5174 43.7053 55.1293 44.2144C55.0646 44.2993 55.0172 44.3961 54.9899 44.4992C54.9626 44.6024 54.956 44.71 54.9703 44.8157C54.9846 44.9215 55.0195 45.0234 55.0732 45.1157C55.127 45.2079 55.1983 45.2887 55.2832 45.3533C55.3681 45.418 55.4649 45.4654 55.568 45.4927C55.6712 45.52 55.7787 45.5267 55.8845 45.5125C55.9902 45.4982 56.0921 45.4632 56.1844 45.4096C56.2766 45.3559 56.3574 45.2847 56.4221 45.1998C56.9752 44.4741 57.4392 43.7805 57.6119 41.9819C58.0226 37.7084 56.5698 34.5247 54.9512 32.3716C56.8399 30.249 57.8105 27.4523 57.5566 24.8162C57.3632 22.8059 57.7244 20.344 58.631 17.4995C59.1207 15.962 58.7232 14.293 57.5942 13.1431ZM28.0829 45.4242C29.6087 43.0915 31.7471 41.6421 34.1044 41.3429C36.4613 41.0437 38.8944 41.9129 40.9545 43.7904C42.9462 45.6055 44.2711 48.0874 44.59 50.5992C44.7668 51.9923 44.5841 53.0141 44.0315 53.722C42.9374 55.1234 40.2981 55.4388 37.2409 55.8046C36.8216 55.8549 35.0991 56.0735 34.68 56.1297C31.6289 56.5391 28.994 56.8932 27.5845 55.8096C26.8724 55.2621 26.4404 54.3186 26.2636 52.9254C25.9447 50.4136 26.6079 47.6795 28.0829 45.4242ZM5.62693 23.2482C5.23327 22.4392 5.26214 21.5144 5.72181 20.7188C6.22593 19.8458 7.12811 19.3474 8.13515 19.385C14.1899 19.6132 17.6004 22.0389 19.2265 23.6766C18.0905 25.1874 17.2274 26.7467 16.5843 28.1382C11.7004 24.9886 6.95199 23.5971 5.62693 23.2482ZM53.7641 13.5933C54.7302 13.3052 55.728 13.5625 56.4346 14.2818C57.0785 14.9374 57.3375 15.8256 57.1584 16.7073C55.9621 17.3762 51.7119 19.9099 47.7702 24.1797C46.7995 22.9931 45.5744 21.6989 44.0971 20.5197C46.6375 16.1304 51.654 14.2234 53.7641 13.5933ZM53.8906 31.114C53.5396 30.7414 53.1698 30.387 52.7826 30.0523C51.4069 28.8649 48.8823 25.6339 48.7767 25.4877C51.597 22.3855 54.666 20.1839 56.5195 18.9955C55.9684 21.235 55.7719 23.2397 55.9389 24.9716C56.1427 27.0918 55.3817 29.3495 53.8906 31.114Z" stroke="url(#paint4_linear_4_352)"/>
</g>
<defs>
<linearGradient id="paint0_linear_4_352" x1="145" y1="0" x2="145" y2="59" gradientUnits="userSpaceOnUse">
<stop stop-color="#930BFF"/>
<stop offset="1" stop-color="#0592BE"/>
</linearGradient>
<linearGradient id="paint1_linear_4_352" x1="31.2843" y1="11.8492" x2="31.2843" y2="58.1555" gradientUnits="userSpaceOnUse">
<stop stop-color="#930BFF"/>
<stop offset="1" stop-color="#0592BE"/>
</linearGradient>
<linearGradient id="paint2_linear_4_352" x1="31.2843" y1="11.8492" x2="31.2843" y2="58.1555" gradientUnits="userSpaceOnUse">
<stop stop-color="#930BFF"/>
<stop offset="1" stop-color="#0592BE"/>
</linearGradient>
<linearGradient id="paint3_linear_4_352" x1="31.2843" y1="11.8492" x2="31.2843" y2="58.1555" gradientUnits="userSpaceOnUse">
<stop stop-color="#930BFF"/>
<stop offset="1" stop-color="#0592BE"/>
</linearGradient>
<linearGradient id="paint4_linear_4_352" x1="31.2843" y1="11.8492" x2="31.2843" y2="58.1555" gradientUnits="userSpaceOnUse">
<stop stop-color="#930BFF"/>
<stop offset="1" stop-color="#0592BE"/>
</linearGradient>
<clipPath id="clip0_4_352">
<rect width="58.7277" height="58.7277" fill="white" transform="translate(0 14.395) rotate(-7.23389)"/>
</clipPath>
</defs>
</svg>
