<svg width="580" height="500" viewBox="50 90 580 500" fill="none" xmlns="http://www.w3.org/2000/svg">
<g clip-path="url(#clip0_44_40)">
<path d="M158.692 154.383C111.965 173.431 79.4046 217.304 65.9552 265.062C56.9945 296.881 58.0888 332.278 73.3215 361.616C83.5439 381.304 100.547 397.762 120.897 406.732C131.098 411.228 141.069 410.894 151.323 413.618C160.761 416.126 168.187 422.535 177.348 426.396C201.967 436.771 224.648 444.955 251.969 443.105C277.026 441.428 297.271 421.233 322.588 415.666C344.03 410.951 366.221 411.541 388.148 410.459C410.075 409.377 432.607 406.377 451.601 395.369C470.596 384.361 485.368 363.715 483.756 341.82C482.299 322.024 468.018 305.162 451.298 294.464C434.578 283.766 415.308 277.926 396.948 270.382C373.742 260.847 351.466 248.247 333.575 230.657C318.309 215.647 314.085 198.655 303.548 181.723C294.503 167.186 271.123 157.116 255.68 151.77C225.9 141.459 189.269 141.919 158.692 154.383Z" fill="url(#paint0_linear_44_40)"/>
<path d="M420.619 100.052C417.347 99.5982 414.054 99.3139 410.753 99.1995C394.414 98.6323 364.539 98.8846 356.509 116.195C352.903 123.971 351.914 132.929 347.203 140.089C343.118 146.298 336.682 150.476 331.052 155.328C325.422 160.18 320.199 166.533 320.095 173.965C319.897 188.141 338.191 201.868 347.37 210.873C367.1 230.233 387.018 242.495 411.783 253.988C426.623 260.874 440.59 269.44 455.284 276.611C469.396 283.497 484.506 289.109 500.359 290.068C516.211 291.027 532.976 286.867 544.739 276.319C571.96 251.912 551.217 208.188 536.797 182.889C530.275 171.446 523.337 159.063 513.856 149.659C502.105 138.004 487.479 128.28 472.958 120.157C456.074 110.711 439.618 102.682 420.619 100.052Z" fill="#FFF4FF"/>
<g opacity="0.67">
<path d="M606.832 217.065C606.872 217.034 606.912 217.003 606.953 216.972C606.447 222.854 609.069 227.31 605.844 233.489C603.5 237.981 600.001 241.834 597.583 246.288C593.372 254.048 596.991 261.373 593.336 269.411C588.064 281.003 579.237 291.608 567.101 296.562C557.609 300.437 546.293 300.865 538.499 307.335C533.442 311.533 530.674 317.671 526.604 322.762C511.56 341.576 484.019 337.605 462.199 337.092C450.862 336.826 456.455 333.232 462.064 328.9C477.633 316.873 493.202 304.846 508.771 292.818C541.456 267.568 574.058 242.208 606.832 217.065Z" fill="url(#paint1_linear_44_40)"/>
<path d="M606.832 217.063C601.834 215.291 597.731 217.292 592.846 216.953C588.788 216.671 584.759 214.722 580.591 214.345C571.463 213.489 562.286 215.358 554.219 219.715C549.056 222.562 544.266 226.501 538.364 227.339C533.905 227.971 529.373 226.728 524.865 226.864C517.23 227.094 510.233 231.318 505.188 236.789C495.754 247.016 491.206 260.651 482.068 271.086C477.416 276.398 471.311 280.355 466.305 285.363C456.253 295.418 450.147 320.213 455.79 333.724C455.223 332.369 483.349 312.456 485.213 311.017C505.726 295.17 526.239 279.324 546.752 263.477C566.771 248.012 586.77 232.425 606.832 217.063Z" fill="#AEC7F3"/>
<path d="M455.043 334.323C455.209 334.517 455.443 334.64 455.697 334.667C455.951 334.693 456.205 334.622 456.408 334.467L607.442 217.792C607.541 217.718 607.623 217.624 607.684 217.517C607.745 217.409 607.783 217.291 607.796 217.168C607.809 217.046 607.797 216.922 607.761 216.804C607.724 216.686 607.664 216.577 607.584 216.484C607.418 216.29 607.184 216.167 606.93 216.14C606.676 216.113 606.422 216.185 606.219 216.339L455.185 333.015C455.086 333.089 455.004 333.183 454.943 333.29C454.883 333.397 454.844 333.516 454.831 333.638C454.818 333.761 454.83 333.885 454.866 334.003C454.902 334.12 454.963 334.23 455.043 334.323Z" fill="#F5FAFA"/>
<path d="M493.939 304.276C493.992 304.339 494.054 304.395 494.121 304.444C494.33 304.591 494.587 304.652 494.839 304.615C495.091 304.578 495.32 304.446 495.478 304.246C496.657 302.691 524.34 265.906 518.917 242.359C518.854 242.113 518.698 241.901 518.482 241.768C518.266 241.635 518.007 241.591 517.759 241.645C517.637 241.667 517.521 241.714 517.417 241.782C517.314 241.85 517.225 241.939 517.156 242.042C517.088 242.145 517.04 242.261 517.017 242.383C516.994 242.505 516.995 242.63 517.022 242.751C522.259 265.486 494.189 302.769 493.906 303.142C493.781 303.306 493.716 303.508 493.722 303.715C493.728 303.921 493.804 304.119 493.939 304.276ZM539.241 269.279C539.369 269.429 539.539 269.537 539.728 269.591C539.918 269.644 540.119 269.641 540.306 269.58C540.612 269.482 571.137 259.987 582.843 273.881C583.009 274.075 583.243 274.198 583.497 274.224C583.751 274.251 584.005 274.18 584.208 274.025C584.307 273.951 584.389 273.857 584.449 273.75C584.51 273.643 584.549 273.524 584.562 273.402C584.575 273.279 584.563 273.155 584.527 273.037C584.49 272.92 584.43 272.811 584.35 272.717C571.794 257.815 540.989 267.398 539.683 267.814C539.537 267.856 539.403 267.934 539.295 268.041C539.187 268.148 539.107 268.281 539.063 268.426C539.019 268.572 539.012 268.726 539.043 268.875C539.075 269.024 539.142 269.163 539.241 269.279Z" fill="#F5FAFA"/>
</g>
<path d="M470.015 174.29C457.446 179.566 454.511 192.944 443.184 200.637C438.558 203.78 433.254 206.218 429.804 210.612C424.479 217.394 424.915 227.183 427.505 235.524C429.319 241.37 432.09 247.414 430.683 253.313C429.411 258.643 425.003 262.541 422.39 267.338C415.078 280.759 422.311 297.279 427.736 310.161C430.362 316.394 433.479 322.584 438.477 327.324C438.775 327.607 443.854 331.362 443.854 331.362C446.802 313.657 449.751 295.953 452.699 278.248C458.469 243.606 463.766 208.817 470.036 174.281L470.015 174.29Z" fill="#D0FCFF"/>
<path d="M470.013 174.286C469.912 174.894 475.869 181.315 476.666 182.882C478.88 187.056 479.693 191.83 478.987 196.502C478.286 201.625 477.189 207.323 480.147 211.637C482.641 215.272 487.303 216.749 490.404 219.888C494.761 224.296 495.302 231.133 494.747 237.234C493.706 248.662 489.625 259.192 483.493 268.742C477.78 277.641 478.721 284.614 478.405 295.059C478.031 307.42 470.015 313.266 461.79 320.743C458.036 324.157 454.964 327.462 450.083 329.532C449.722 329.685 443.854 331.36 443.854 331.363C443.954 330.759 470.012 174.295 470.013 174.286Z" fill="url(#paint2_linear_44_40)"/>
<path d="M443.722 332.148C443.513 332.11 443.327 331.992 443.205 331.818C443.082 331.645 443.032 331.43 443.065 331.221L469.225 174.143C469.242 174.04 469.28 173.941 469.336 173.853C469.391 173.765 469.464 173.689 469.55 173.63C469.635 173.57 469.732 173.528 469.834 173.506C469.936 173.485 470.041 173.484 470.144 173.503C470.353 173.541 470.539 173.66 470.662 173.833C470.784 174.006 470.834 174.221 470.801 174.431L444.641 331.509C444.624 331.612 444.586 331.71 444.531 331.798C444.475 331.886 444.402 331.962 444.316 332.022C444.231 332.081 444.134 332.123 444.032 332.145C443.93 332.167 443.825 332.168 443.722 332.148Z" fill="#F5FAFA"/>
<path d="M450.459 291.697C450.391 291.684 450.324 291.662 450.261 291.633C450.068 291.544 449.918 291.383 449.844 291.184C449.769 290.986 449.776 290.765 449.862 290.572C450.546 289.08 466.824 253.968 486.566 248.22C486.771 248.162 486.99 248.187 487.176 248.289C487.363 248.39 487.503 248.561 487.565 248.764C487.597 248.863 487.608 248.968 487.598 249.072C487.588 249.176 487.558 249.276 487.509 249.368C487.46 249.46 487.393 249.542 487.312 249.607C487.231 249.673 487.138 249.722 487.038 249.751C467.975 255.3 451.482 290.896 451.318 291.254C451.244 291.413 451.12 291.542 450.965 291.623C450.809 291.703 450.631 291.729 450.459 291.697ZM458.306 244.581C458.145 244.552 457.996 244.474 457.88 244.359C457.763 244.244 457.684 244.096 457.653 243.935C457.602 243.673 452.386 217.71 437.311 214.953C437.102 214.915 436.916 214.796 436.793 214.623C436.67 214.449 436.62 214.235 436.654 214.025C436.671 213.922 436.708 213.824 436.764 213.736C436.82 213.647 436.893 213.571 436.978 213.512C437.064 213.452 437.16 213.41 437.262 213.389C437.364 213.367 437.47 213.366 437.572 213.385C453.741 216.343 459.005 242.545 459.221 243.66C459.245 243.786 459.238 243.916 459.201 244.038C459.164 244.16 459.097 244.272 459.007 244.363C458.917 244.453 458.806 244.521 458.684 244.559C458.562 244.597 458.432 244.605 458.306 244.581Z" fill="#F5FAFA"/>
<path d="M556.024 164.933C560.845 176.136 566.748 192.554 562.215 203.826C560.047 209.216 556.638 214.484 555.819 220.462C554.875 227.353 558.555 232.759 558.618 239.403C558.873 266.36 525.242 263.597 521.454 285.254C520.526 290.558 521.706 296.214 520.864 301.54C519.784 308.369 515.431 314.002 510.177 317.823C500.569 324.81 488.353 328.838 476.816 330.877C469.001 332.258 462.435 335.842 454.086 334.978C453.666 334.934 447.106 333.487 447.093 333.507C447.218 333.314 556.024 164.933 556.024 164.933Z" fill="url(#paint3_linear_44_40)"/>
<path d="M556.022 164.937C553.872 168.174 541.294 166.396 537.857 166.765C529.567 167.653 520.763 170.179 513.75 174.815C509.06 177.916 505.161 182.792 504.374 188.748C504.08 190.973 504.203 193.364 503.24 195.319C501.816 198.209 498.424 199.27 495.298 199.25C483.903 199.178 474.49 199.892 469.571 212.534C465.868 222.051 463.021 236.935 462.952 247.237C462.927 250.903 463.223 254.79 461.669 257.957C460.26 260.827 457.569 262.609 455.246 264.663C441.704 276.631 434.683 302.803 441.6 321.008C441.836 321.632 446.974 333.692 447.096 333.503C447.725 332.529 556.024 164.934 556.022 164.937Z" fill="#DAB8F4"/>
<path d="M446.549 334.348C446.649 334.432 446.766 334.494 446.891 334.529C447.017 334.564 447.148 334.573 447.277 334.553C447.406 334.534 447.529 334.487 447.639 334.416C447.748 334.345 447.841 334.252 447.912 334.142L556.842 165.569C556.985 165.332 557.036 165.051 556.985 164.779C556.935 164.507 556.786 164.263 556.567 164.093C556.467 164.009 556.35 163.948 556.225 163.913C556.099 163.877 555.968 163.869 555.839 163.889C555.71 163.908 555.587 163.955 555.477 164.026C555.368 164.096 555.275 164.19 555.204 164.299L446.274 332.872C446.131 333.11 446.08 333.391 446.131 333.663C446.182 333.935 446.331 334.179 446.549 334.348Z" fill="#F5FAFA"/>
<path d="M474.602 290.937C474.673 290.991 474.75 291.036 474.831 291.072C474.95 291.125 475.079 291.151 475.209 291.15C475.339 291.149 475.468 291.12 475.586 291.065C475.704 291.01 475.809 290.931 475.893 290.832C475.978 290.733 476.041 290.617 476.077 290.493C476.725 288.468 491.837 240.641 479.183 216.202C479.127 216.081 479.048 215.973 478.95 215.883C478.852 215.794 478.737 215.725 478.612 215.68C478.487 215.636 478.354 215.617 478.222 215.625C478.089 215.633 477.959 215.667 477.84 215.726C477.609 215.869 477.442 216.096 477.375 216.359C477.307 216.622 477.344 216.902 477.478 217.138C489.697 240.735 474.369 289.212 474.213 289.698C474.146 289.92 474.147 290.156 474.217 290.377C474.286 290.598 474.42 290.793 474.602 290.937ZM507.276 240.373C507.432 240.502 507.627 240.576 507.829 240.585C508.032 240.593 508.232 240.535 508.398 240.419C508.662 240.23 535.118 221.646 550.791 233.796C550.89 233.88 551.007 233.941 551.132 233.977C551.258 234.012 551.389 234.02 551.518 234.001C551.647 233.981 551.77 233.934 551.88 233.864C551.989 233.793 552.082 233.7 552.153 233.59C552.296 233.353 552.347 233.072 552.296 232.799C552.245 232.527 552.096 232.283 551.877 232.114C535.067 219.082 508.369 237.838 507.24 238.644C507.026 238.814 506.885 239.059 506.845 239.329C506.805 239.6 506.869 239.875 507.025 240.1C507.092 240.204 507.177 240.297 507.276 240.373ZM463.9 310.678C464.056 310.807 464.251 310.882 464.453 310.89C464.656 310.898 464.856 310.841 465.022 310.725C465.286 310.536 491.742 291.951 507.415 304.102C507.515 304.185 507.631 304.247 507.757 304.282C507.882 304.317 508.014 304.326 508.142 304.306C508.271 304.287 508.394 304.24 508.504 304.169C508.613 304.098 508.706 304.005 508.777 303.896C508.92 303.658 508.971 303.377 508.92 303.105C508.869 302.833 508.72 302.589 508.501 302.419C491.691 289.388 464.993 308.143 463.864 308.95C463.65 309.12 463.509 309.365 463.469 309.635C463.429 309.905 463.493 310.181 463.649 310.405C463.716 310.51 463.801 310.602 463.9 310.678Z" fill="#F5FAFA"/>
<g opacity="0.67">
<path d="M217.501 242.523C217.519 242.475 217.538 242.427 217.556 242.379C220.122 247.744 224.613 250.242 225.026 257.283C225.326 262.4 224.323 267.565 224.542 272.689C224.924 281.614 231.721 286.081 232.715 294.958C234.15 307.76 232.068 321.557 224.307 332.178C218.236 340.486 208.864 346.755 205.554 356.428C203.405 362.705 204.185 369.47 203.328 376.007C200.159 400.165 174.798 411.073 156.046 421.999C146.303 427.676 149.213 421.644 151.76 414.964C158.831 396.419 165.901 377.874 172.97 359.328C187.813 320.394 202.528 281.409 217.501 242.523Z" fill="url(#paint4_linear_44_40)"/>
<path d="M217.5 242.52C212.363 243.588 209.904 247.462 205.592 249.713C202.009 251.583 197.603 251.993 193.879 253.837C185.663 257.894 178.837 264.298 174.264 272.238C171.339 277.398 169.285 283.311 164.71 287.113C161.254 289.985 156.78 291.268 153.029 293.735C146.676 297.914 142.898 305.224 141.407 312.598C138.62 326.385 141.708 340.582 139.277 354.394C138.04 361.426 134.88 368.039 133.188 374.991C129.79 388.951 137.239 413.639 148.9 422.418C147.73 421.537 161.426 389.609 162.272 387.389C171.588 362.955 180.903 338.521 190.218 314.087C199.309 290.24 208.321 266.299 217.5 242.52Z" fill="#AEC7F3"/>
<path d="M148.572 423.326C148.813 423.407 149.076 423.391 149.306 423.281C149.535 423.172 149.713 422.978 149.803 422.74L218.388 242.835C218.434 242.72 218.457 242.596 218.454 242.473C218.451 242.349 218.424 242.227 218.373 242.114C218.322 242.001 218.249 241.9 218.157 241.816C218.066 241.732 217.959 241.667 217.842 241.626C217.601 241.546 217.338 241.562 217.109 241.671C216.88 241.78 216.701 241.974 216.612 242.212L148.026 422.118C147.98 422.233 147.958 422.356 147.96 422.479C147.963 422.603 147.991 422.725 148.042 422.838C148.093 422.951 148.166 423.052 148.257 423.136C148.348 423.22 148.455 423.285 148.572 423.326Z" fill="#F5FAFA"/>
<path d="M166.235 376.996C166.374 377.044 166.523 377.06 166.669 377.042C166.816 377.025 166.956 376.974 167.08 376.894C167.205 376.815 167.309 376.708 167.386 376.582C167.463 376.456 167.51 376.314 167.524 376.167C167.732 374.204 172.462 327.873 155.878 310.275C155.699 310.098 155.459 309.998 155.208 309.995C154.958 309.992 154.715 310.087 154.533 310.259C154.35 310.431 154.242 310.668 154.231 310.918C154.219 311.169 154.305 311.414 154.471 311.603C170.485 328.593 165.68 375.558 165.63 376.029C165.607 376.235 165.654 376.442 165.764 376.618C165.874 376.794 166.04 376.927 166.235 376.996ZM186.807 323.033C186.992 323.096 187.192 323.101 187.38 323.049C187.569 322.997 187.737 322.889 187.863 322.74C188.072 322.495 209.106 298.352 226.099 304.303C226.34 304.384 226.603 304.367 226.833 304.258C227.062 304.149 227.24 303.955 227.33 303.717C227.376 303.602 227.398 303.479 227.395 303.355C227.393 303.231 227.365 303.109 227.314 302.996C227.263 302.883 227.19 302.782 227.099 302.698C227.007 302.614 226.9 302.55 226.784 302.508C208.557 296.125 187.33 320.49 186.436 321.532C186.353 321.625 186.289 321.734 186.249 321.852C186.208 321.969 186.192 322.094 186.199 322.218C186.207 322.342 186.24 322.464 186.294 322.576C186.349 322.687 186.426 322.787 186.52 322.869C186.604 322.941 186.702 322.997 186.807 323.033Z" fill="#F5FAFA"/>
</g>
<path d="M79.7803 276.719C71.8157 287.844 76.1397 300.977 70.458 313.553C68.137 318.689 64.8844 323.568 64.1977 329.177C63.138 337.834 68.4918 346.098 74.9328 351.983C79.447 356.108 84.8724 359.906 86.6833 365.756C88.3192 371.041 86.5686 376.72 86.7961 382.242C87.4331 397.694 101.973 408.253 113.13 416.599C118.528 420.637 124.321 424.381 130.97 425.888C131.366 425.978 137.582 426.589 137.582 426.589C131.067 409.696 124.551 392.803 118.036 375.911C105.287 342.857 92.0637 309.923 79.7937 276.7L79.7803 276.719Z" fill="#D0FCFF"/>
<path d="M79.7771 276.716C80.0007 277.296 88.3178 279.761 89.7912 280.705C93.8145 283.198 96.9338 286.914 98.6919 291.308C100.707 296.117 102.678 301.631 107.381 303.831C111.345 305.685 116.048 304.537 120.275 305.643C126.211 307.196 130.151 312.844 132.786 318.425C137.722 328.88 139.625 340.14 139.292 351.618C138.981 362.314 143.328 367.872 148.379 377.096C154.355 388.012 150.539 397.26 147.376 408.032C145.932 412.949 145.011 417.417 141.929 421.755C141.701 422.076 137.581 426.587 137.582 426.59C137.36 426.014 79.7804 276.725 79.7771 276.716Z" fill="url(#paint5_linear_44_40)"/>
<path d="M137.871 427.339C137.773 427.376 137.669 427.394 137.564 427.391C137.46 427.388 137.356 427.364 137.261 427.321C137.165 427.279 137.079 427.217 137.007 427.141C136.935 427.065 136.879 426.975 136.842 426.877L79.0361 277.002C78.9975 276.905 78.9787 276.8 78.9806 276.696C78.9825 276.591 79.0052 276.487 79.0474 276.391C79.0895 276.295 79.1502 276.208 79.226 276.136C79.3019 276.064 79.3913 276.007 79.4891 275.969C79.587 275.931 79.6914 275.913 79.7962 275.916C79.901 275.919 80.0043 275.943 80.1 275.986C80.1956 276.029 80.2819 276.09 80.3537 276.167C80.4255 276.243 80.4814 276.333 80.5183 276.431L138.324 426.306C138.362 426.403 138.381 426.508 138.379 426.612C138.377 426.717 138.354 426.82 138.312 426.916C138.27 427.012 138.209 427.099 138.134 427.172C138.058 427.244 137.969 427.301 137.871 427.339Z" fill="#F5FAFA"/>
<path d="M122.985 388.743C122.92 388.767 122.853 388.783 122.784 388.791C122.573 388.812 122.363 388.749 122.198 388.616C122.034 388.482 121.929 388.289 121.906 388.078C121.726 386.428 117.643 347.49 131.447 332.217C131.518 332.14 131.602 332.077 131.697 332.033C131.792 331.988 131.894 331.963 131.999 331.959C132.103 331.954 132.208 331.97 132.306 332.006C132.404 332.042 132.494 332.097 132.571 332.168C132.727 332.312 132.82 332.511 132.831 332.722C132.841 332.934 132.768 333.141 132.626 333.299C119.297 348.046 123.444 387.515 123.487 387.911C123.507 388.086 123.468 388.262 123.377 388.412C123.286 388.562 123.148 388.679 122.985 388.743ZM105.646 343.787C105.494 343.846 105.328 343.856 105.17 343.817C105.012 343.777 104.87 343.69 104.763 343.568C104.588 343.367 86.9484 323.565 72.7695 329.03C72.5717 329.104 72.3526 329.097 72.1598 329.011C71.9671 328.924 71.8163 328.765 71.7402 328.568C71.6642 328.371 71.6691 328.152 71.7538 327.958C71.8385 327.765 71.9962 327.612 72.1926 327.535C87.4008 321.674 105.202 341.657 105.952 342.512C106.092 342.671 106.164 342.879 106.151 343.091C106.139 343.302 106.043 343.5 105.886 343.641C105.815 343.704 105.734 343.754 105.646 343.787Z" fill="#F5FAFA"/>
<path d="M147.903 223.782C157.692 230.987 171.054 242.151 172.951 254.29C173.858 260.095 173.652 266.44 176.001 272.052C178.709 278.521 184.581 281.292 188.017 287.023C201.958 310.27 172.051 325.4 179.867 346.159C181.781 351.242 185.661 355.533 187.659 360.591C190.221 367.078 189.4 374.232 186.893 380.284C182.309 391.351 174.007 401.21 165.269 408.991C159.349 414.262 155.609 420.792 148.094 424.393C147.717 424.574 141.42 426.737 141.42 426.761C141.427 426.529 147.903 223.782 147.903 223.782Z" fill="url(#paint6_linear_44_40)"/>
<path d="M147.903 223.786C147.729 227.715 136.165 232.727 133.44 234.838C126.867 239.929 120.693 246.707 117.11 254.383C114.714 259.516 113.893 265.778 116.259 271.354C117.142 273.436 118.464 275.447 118.643 277.644C118.907 280.893 116.573 283.58 113.914 285.192C104.221 291.068 96.6079 296.593 98.8757 310.121C100.583 320.305 105.748 334.699 110.935 343.671C112.781 346.863 115.01 350.08 115.306 353.637C115.573 356.86 114.2 359.808 113.277 362.801C107.894 380.238 115.271 406.597 130.401 418.783C130.919 419.2 141.413 426.984 141.42 426.756C141.457 425.584 147.903 223.783 147.903 223.786Z" fill="#DAB8F4"/>
<path d="M141.387 427.774C141.516 427.794 141.647 427.785 141.773 427.75C141.898 427.714 142.014 427.652 142.114 427.568C142.213 427.484 142.293 427.379 142.349 427.262C142.405 427.144 142.435 427.016 142.437 426.886L148.92 223.907C148.923 223.63 148.825 223.362 148.643 223.152C148.462 222.943 148.21 222.807 147.935 222.771C147.806 222.752 147.675 222.76 147.55 222.796C147.424 222.831 147.308 222.893 147.209 222.977C147.109 223.061 147.029 223.166 146.973 223.283C146.917 223.401 146.887 223.529 146.885 223.66L140.402 426.638C140.399 426.915 140.498 427.183 140.679 427.393C140.861 427.602 141.112 427.738 141.387 427.774Z" fill="#F5FAFA"/>
<path d="M143.057 375.502C143.145 375.512 143.233 375.512 143.32 375.5C143.45 375.482 143.573 375.436 143.684 375.366C143.794 375.297 143.888 375.204 143.96 375.095C144.032 374.986 144.08 374.864 144.101 374.735C144.122 374.606 144.115 374.474 144.081 374.348C143.6 372.255 132.055 322.897 108.888 308.293C108.78 308.218 108.658 308.165 108.529 308.139C108.399 308.112 108.266 308.112 108.137 308.139C108.008 308.166 107.885 308.219 107.777 308.295C107.669 308.37 107.578 308.468 107.509 308.58C107.385 308.824 107.359 309.106 107.435 309.368C107.512 309.631 107.685 309.855 107.92 309.994C130.289 324.093 141.982 374.128 142.097 374.631C142.151 374.856 142.271 375.059 142.442 375.215C142.614 375.37 142.828 375.471 143.057 375.502ZM145.002 314.619C145.201 314.648 145.405 314.611 145.582 314.512C145.758 314.414 145.897 314.26 145.977 314.074C146.104 313.772 159.061 283.866 178.529 286.238C178.657 286.257 178.789 286.249 178.914 286.213C179.039 286.178 179.156 286.116 179.255 286.032C179.354 285.947 179.434 285.843 179.49 285.725C179.546 285.608 179.576 285.48 179.578 285.349C179.581 285.072 179.483 284.804 179.301 284.594C179.12 284.385 178.868 284.249 178.593 284.213C157.713 281.669 144.637 311.85 144.091 313.138C143.996 313.395 144 313.679 144.103 313.934C144.207 314.188 144.402 314.395 144.65 314.512C144.76 314.568 144.879 314.604 145.002 314.619ZM144.039 398.202C144.239 398.232 144.443 398.194 144.619 398.096C144.795 397.997 144.934 397.843 145.014 397.658C145.141 397.356 158.098 367.45 177.566 369.822C177.695 369.841 177.826 369.832 177.952 369.797C178.077 369.761 178.193 369.699 178.292 369.615C178.392 369.531 178.472 369.427 178.528 369.309C178.584 369.192 178.614 369.063 178.616 368.933C178.619 368.656 178.52 368.387 178.339 368.178C178.157 367.969 177.905 367.833 177.631 367.796C156.75 365.253 143.675 395.434 143.129 396.722C143.033 396.979 143.037 397.263 143.141 397.517C143.244 397.772 143.439 397.978 143.687 398.096C143.798 398.152 143.917 398.188 144.039 398.202Z" fill="#F5FAFA"/>
<path d="M117.324 505.59H164.715C164.715 505.59 179.624 484.678 177.01 436.709H105.03L105.046 436.775C102.432 484.695 117.324 505.59 117.324 505.59Z" fill="#9EB8F2"/>
<path d="M117.324 505.59H135.807C135.807 505.59 150.716 484.678 148.102 436.709H105.03L105.046 436.775C102.432 484.695 117.324 505.59 117.324 505.59Z" fill="url(#paint7_linear_44_40)"/>
<path d="M102.448 426.959V433.852C102.448 434.226 102.521 434.597 102.663 434.944C102.806 435.29 103.016 435.604 103.28 435.87C103.544 436.135 103.858 436.346 104.204 436.49C104.549 436.634 104.92 436.708 105.294 436.709H176.745C177.119 436.708 177.49 436.634 177.836 436.49C178.181 436.346 178.495 436.135 178.76 435.87C179.024 435.605 179.233 435.29 179.376 434.944C179.519 434.597 179.592 434.226 179.591 433.852V426.959C179.592 426.584 179.519 426.213 179.376 425.867C179.233 425.521 179.024 425.206 178.76 424.941C178.495 424.676 178.181 424.465 177.836 424.321C177.49 424.177 177.119 424.103 176.745 424.102H105.294C104.92 424.103 104.549 424.177 104.204 424.321C103.858 424.465 103.544 424.676 103.28 424.941C103.016 425.206 102.806 425.521 102.663 425.867C102.521 426.213 102.448 426.584 102.448 426.959Z" fill="#9EB8F2"/>
<path d="M102.448 426.959V433.852C102.448 434.226 102.521 434.597 102.663 434.944C102.806 435.29 103.016 435.604 103.28 435.87C103.544 436.135 103.858 436.346 104.204 436.49C104.549 436.634 104.92 436.708 105.294 436.709H163.077C163.451 436.708 163.822 436.634 164.168 436.49C164.513 436.346 164.827 436.135 165.092 435.87C165.356 435.605 165.565 435.29 165.708 434.944C165.851 434.597 165.924 434.226 165.923 433.852V426.959C165.924 426.584 165.851 426.213 165.708 425.867C165.565 425.521 165.356 425.206 165.092 424.941C164.827 424.676 164.513 424.465 164.168 424.321C163.822 424.177 163.451 424.103 163.077 424.102H105.294C104.92 424.103 104.549 424.177 104.204 424.321C103.858 424.465 103.544 424.676 103.28 424.941C103.016 425.206 102.806 425.521 102.663 425.867C102.521 426.213 102.448 426.584 102.448 426.959Z" fill="url(#paint8_linear_44_40)"/>
<path d="M104.734 440.523H177.316V436.651H104.734V440.523Z" fill="#9EB8F2"/>
<path d="M324.667 107.864C304.088 103.273 284.512 112.192 266.065 120.102C255.451 124.654 260.087 134.354 266.387 141.004C274.558 149.629 289.379 153.525 300.69 155.66C313.942 158.161 324.292 148.932 329.968 137.848C336.124 125.825 340.682 111.437 324.667 107.864Z" fill="#FFF4FF"/>
<path d="M314.588 388.095H291.263L279.6 361.654H302.925L314.588 388.095Z" fill="#616D7D"/>
<path d="M311.966 388.095H288.641L276.978 361.654H300.303L311.966 388.095Z" fill="#7590A2"/>
<path d="M316.47 384.645H271.698C271.472 384.645 271.247 384.69 271.038 384.777C270.829 384.863 270.639 384.99 270.479 385.15C270.318 385.311 270.191 385.501 270.105 385.71C270.018 385.919 269.973 386.144 269.973 386.37C269.973 386.597 270.018 386.821 270.105 387.03C270.191 387.239 270.318 387.429 270.479 387.59C270.639 387.75 270.829 387.877 271.038 387.963C271.247 388.05 271.472 388.095 271.698 388.095H316.47C316.696 388.095 316.921 388.05 317.13 387.963C317.339 387.877 317.529 387.75 317.689 387.59C317.85 387.429 317.977 387.239 318.063 387.03C318.15 386.821 318.195 386.597 318.195 386.37C318.195 386.144 318.15 385.919 318.063 385.71C317.977 385.501 317.85 385.311 317.689 385.15C317.529 384.99 317.339 384.863 317.13 384.777C316.921 384.69 316.696 384.645 316.47 384.645Z" fill="#758798"/>
<path d="M247.73 370.631C243.421 370.631 240.41 367.124 241.019 362.814L251.145 291.187C251.494 289.051 252.575 287.102 254.203 285.676C255.831 284.249 257.904 283.434 260.068 283.37H352.174C356.484 283.37 359.495 286.876 358.886 291.186L348.759 362.814C348.411 364.95 347.33 366.899 345.702 368.325C344.074 369.751 342.001 370.566 339.838 370.631H247.73Z" fill="#616D7D"/>
<path d="M243.468 370.631C239.159 370.631 236.148 367.124 236.757 362.814L246.884 291.187C247.232 289.051 248.313 287.102 249.941 285.676C251.569 284.249 253.642 283.434 255.806 283.37H347.912C352.222 283.37 355.233 286.876 354.624 291.186L344.497 362.814C344.149 364.95 343.068 366.899 341.44 368.325C339.812 369.751 337.739 370.566 335.576 370.631H243.468Z" fill="#758798"/>
<path d="M244.283 364.874C243.711 364.89 243.143 364.779 242.62 364.547C242.097 364.316 241.632 363.971 241.26 363.537C240.887 363.103 240.617 362.592 240.467 362.04C240.318 361.488 240.293 360.909 240.396 360.347L249.825 293.654C250.025 292.416 250.651 291.287 251.594 290.461C252.537 289.635 253.739 289.163 254.992 289.127H347.098C347.67 289.11 348.238 289.222 348.761 289.453C349.284 289.684 349.749 290.029 350.121 290.463C350.494 290.897 350.765 291.409 350.914 291.961C351.064 292.513 351.088 293.091 350.985 293.654L341.556 360.347C341.356 361.584 340.73 362.713 339.787 363.54C338.844 364.366 337.643 364.838 336.389 364.874H244.283Z" fill="#F7F6F0"/>
<path d="M252.775 304.988H345.141C345.606 304.973 346.053 304.799 346.404 304.493C346.755 304.188 346.989 303.77 347.068 303.311L347.701 299.056C347.741 298.849 347.734 298.635 347.681 298.43C347.627 298.226 347.528 298.036 347.391 297.875C347.254 297.714 347.082 297.586 346.889 297.5C346.696 297.414 346.486 297.373 346.275 297.38H253.908C253.443 297.394 252.997 297.568 252.646 297.874C252.295 298.18 252.06 298.597 251.982 299.056L251.348 303.311C251.308 303.518 251.315 303.732 251.369 303.937C251.423 304.141 251.522 304.331 251.659 304.492C251.796 304.653 251.967 304.781 252.16 304.867C252.353 304.953 252.563 304.994 252.775 304.988ZM326.124 349.965H338.332C338.828 349.95 339.302 349.764 339.676 349.439C340.05 349.113 340.299 348.669 340.383 348.18L346.08 309.942C346.122 309.721 346.115 309.494 346.057 309.276C346 309.059 345.895 308.857 345.749 308.685C345.603 308.514 345.421 308.378 345.215 308.286C345.009 308.195 344.786 308.151 344.561 308.158H332.353C331.857 308.173 331.383 308.359 331.009 308.684C330.635 309.009 330.385 309.454 330.302 309.942L324.605 348.18C324.563 348.401 324.57 348.629 324.627 348.847C324.685 349.064 324.79 349.266 324.936 349.437C325.082 349.609 325.264 349.745 325.47 349.836C325.675 349.928 325.899 349.972 326.124 349.965ZM248.247 337.813H280.706C281.201 337.798 281.676 337.612 282.05 337.287C282.423 336.962 282.673 336.517 282.756 336.029L286.643 309.942C286.685 309.721 286.678 309.494 286.621 309.276C286.563 309.059 286.458 308.857 286.312 308.685C286.166 308.514 285.984 308.378 285.778 308.286C285.573 308.195 285.349 308.151 285.124 308.158H252.665C252.17 308.173 251.695 308.359 251.322 308.684C250.948 309.009 250.698 309.454 250.615 309.942L246.729 336.029C246.686 336.25 246.694 336.477 246.751 336.695C246.808 336.913 246.913 337.114 247.059 337.286C247.205 337.457 247.388 337.594 247.593 337.685C247.799 337.776 248.022 337.82 248.247 337.813ZM245.799 342.271C245.855 341.777 246.079 341.317 246.433 340.969C246.788 340.62 247.252 340.404 247.747 340.357H280.448C281.367 340.357 281.984 341.214 281.826 342.271L279.688 356.621H243.661L245.799 342.271ZM288.045 328.871C288.101 328.377 288.325 327.917 288.68 327.568C289.035 327.22 289.499 327.004 289.994 326.956H302.445C303.363 326.956 303.98 327.814 303.823 328.871L299.688 356.621H283.911L288.045 328.871ZM323.657 354.544C323.713 354.05 323.937 353.59 324.292 353.242C324.647 352.893 325.11 352.677 325.606 352.63H338.057C338.975 352.63 339.592 353.487 339.434 354.544L339.125 356.621H323.348L323.657 354.544ZM308.86 335.383H321.068C321.563 335.368 322.038 335.182 322.412 334.857C322.785 334.531 323.035 334.087 323.118 333.598L326.643 309.942C326.685 309.721 326.678 309.494 326.621 309.276C326.563 309.059 326.458 308.857 326.312 308.685C326.166 308.514 325.984 308.378 325.778 308.286C325.573 308.195 325.349 308.151 325.124 308.158H312.916C312.42 308.173 311.946 308.359 311.572 308.684C311.198 309.009 310.949 309.454 310.865 309.942L307.341 333.598C307.298 333.819 307.306 334.047 307.363 334.265C307.42 334.482 307.526 334.684 307.671 334.855C307.817 335.027 308 335.163 308.205 335.254C308.411 335.346 308.635 335.39 308.86 335.383ZM306.909 308.158L304.755 322.612C304.699 323.106 304.475 323.566 304.12 323.914C303.766 324.263 303.302 324.479 302.807 324.526H290.356C289.437 324.526 288.82 323.669 288.978 322.612L291.131 308.158H306.909ZM305.865 339.728C305.921 339.234 306.145 338.774 306.5 338.425C306.854 338.077 307.318 337.861 307.813 337.813H320.264C321.183 337.813 321.8 338.67 321.642 339.728L319.125 356.621H303.348L305.865 339.728Z" fill="#BCCACE"/>
<path d="M335.294 319.017H342.616L343.872 310.588H336.55L335.294 319.017Z" fill="#979DFE"/>
<path d="M330.425 321.466L330.21 322.914H342.036L342.251 321.466H330.425ZM341.847 324.181H330.021L329.805 325.629H341.631L341.847 324.181ZM341.442 326.896H329.616L329.401 328.344H341.227L341.442 326.896ZM341.038 329.611H329.212L328.996 331.059H340.822L341.038 329.611ZM340.633 332.326H334.856L334.64 333.774H340.418L340.633 332.326Z" fill="#F7F6F0"/>
<path fill-rule="evenodd" clip-rule="evenodd" d="M315.857 319.017H323.179L324.435 310.588H317.113L315.857 319.017Z" fill="white"/>
<path d="M310.988 321.466L310.773 322.914H322.599L322.815 321.466H310.988ZM322.41 324.181H310.584L310.368 325.629H322.194L322.41 324.181ZM322.006 326.896H310.179L309.964 328.344H321.79L322.006 326.896ZM321.601 329.611H309.775L309.559 331.059H321.385L321.601 329.611ZM321.197 332.326H315.419L315.204 333.774H320.981L321.197 332.326Z" fill="#F7F6F0"/>
<path d="M293.056 337.816H300.379L301.635 329.387H294.312L293.056 337.816Z" fill="#70A0FE"/>
<path d="M288.188 340.265L287.972 341.712H299.798L300.014 340.265H288.188ZM299.609 342.98H287.783L287.568 344.427H299.394L299.609 342.98ZM299.205 345.695H287.379L287.163 347.142H298.989L299.205 345.695ZM298.8 348.41H286.974L286.759 349.857H298.585L298.8 348.41ZM298.396 351.125H292.618L292.403 352.572H298.18L298.396 351.125ZM292.775 309.474L292.559 310.922H304.385L304.601 309.474H292.775ZM304.197 312.189H292.37L292.155 313.637H303.981L304.197 312.189ZM303.792 314.904H298.3L298.084 316.352H303.577L303.792 314.904Z" fill="#F7F6F0"/>
<path d="M251.947 319.017H283.084L284.34 310.588H253.202L251.947 319.017Z" fill="#70A0FE"/>
<path d="M251.582 321.466L251.366 322.914H282.504L282.719 321.466H251.582ZM282.315 324.181H263.845L263.629 325.629H282.099L282.315 324.181Z" fill="#F7F6F0"/>
<path fill-rule="evenodd" clip-rule="evenodd" d="M311.422 348.786H318.744L320 340.357H312.677L311.422 348.786Z" fill="#818BEA"/>
<path d="M306.553 351.235L306.338 352.682H318.164L318.379 351.235H306.553ZM317.975 353.95H310.371L310.156 355.397H317.759L317.975 353.95Z" fill="#F7F6F0"/>
<path fill-rule="evenodd" clip-rule="evenodd" d="M331.457 344.767H338.78L340.036 336.339H332.713L331.457 344.767Z" fill="#66BCD5"/>
<path d="M326.589 347.217L326.373 348.664H338.199L338.415 347.217H326.589Z" fill="#F7F6F0"/>
<path d="M251.854 331.984C254.169 341.938 257.615 351.595 262.123 360.766C263.343 363.242 265.093 365.992 267.789 366.149C270.904 366.331 273.492 363.081 274.015 359.921C275.448 351.266 273.338 337.385 271.032 325.628L251.854 331.984Z" fill="#F4A086"/>
<path fill-rule="evenodd" clip-rule="evenodd" d="M271.977 321.278C270.495 314.057 268.187 295.579 258.743 294.76C247.694 293.801 247.485 310.446 248.313 317.677C248.903 322.799 249.787 327.883 250.96 332.903L272.856 325.646C272.569 324.183 272.276 322.726 271.977 321.278Z" fill="#7D719E"/>
<path d="M300.084 321.898C301.765 320.862 303.864 319.807 305.578 320.785C308.107 322.227 307.091 326.17 305.652 328.747C298.11 342.242 287.819 354.003 275.444 363.268C268.647 368.344 265.442 367.281 261.856 359.504C257.905 350.935 289.605 328.359 300.084 321.898Z" fill="#F7B690"/>
<path d="M303.667 314.813C308.004 311.271 314.06 311.292 319.597 311.479C319.9 312.196 319.303 313.009 318.611 313.335C317.919 313.661 317.126 313.701 316.431 314.022C314.607 314.864 314.08 317.266 314.103 319.321C314.126 321.376 314.429 323.581 313.43 325.362C312.411 327.176 310.27 328.033 308.236 328.182C305.764 328.364 299.6 327.131 298.946 323.976C298.344 321.073 301.641 316.467 303.667 314.813Z" fill="#F7B690"/>
<path d="M306.123 326.2C304.339 326.205 302.588 325.722 301.059 324.803C300.931 324.723 300.839 324.596 300.802 324.45C300.765 324.303 300.787 324.148 300.863 324.017C300.899 323.952 300.948 323.895 301.006 323.85C301.065 323.805 301.132 323.772 301.203 323.753C301.275 323.734 301.349 323.73 301.422 323.741C301.495 323.752 301.566 323.777 301.629 323.815C302.806 324.52 304.133 324.936 305.502 325.031C306.87 325.127 308.242 324.898 309.505 324.363C309.924 324.181 310.356 323.861 310.313 323.588C310.258 323.234 309.453 323.09 309.02 323.013C307.676 322.75 306.423 322.145 305.381 321.256C304.34 320.367 303.546 319.224 303.075 317.938C303.023 317.796 303.028 317.64 303.089 317.502C303.15 317.364 303.263 317.255 303.404 317.2C303.473 317.173 303.547 317.161 303.621 317.164C303.695 317.167 303.768 317.185 303.835 317.216C303.902 317.247 303.962 317.292 304.011 317.347C304.061 317.402 304.099 317.467 304.123 317.537C304.526 318.638 305.205 319.616 306.097 320.377C306.988 321.138 308.061 321.656 309.212 321.881C309.92 322.008 311.237 322.243 311.418 323.408C311.542 324.213 310.99 324.966 309.94 325.421C308.734 325.939 307.435 326.204 306.123 326.2Z" fill="#F4A086"/>
<path d="M237.846 354.716C235.429 348.691 209.916 355.956 205.603 366.027C202.727 368.134 200.538 371.046 199.314 374.394C197.446 379.709 198.106 384.997 198.852 390.012C201.522 407.974 204.964 425.637 209.177 443.003C209.487 444.28 209.822 445.595 210.67 446.51C212.835 448.846 216.425 447.867 219.55 445.711C219.763 445.821 219.984 445.914 220.211 445.99C222.232 446.639 228.792 442.524 230.228 440.872C231.664 439.22 239.792 359.566 237.846 354.716Z" fill="#A0B5BF"/>
<path d="M208.453 511.877C211.598 512.336 214.807 512.074 217.837 511.111C218.252 507.372 218.666 503.634 219.081 499.895C219.173 499.441 219.147 498.97 219.004 498.528C218.833 498.257 218.599 498.03 218.323 497.868C218.047 497.705 217.735 497.611 217.415 497.593C214.968 497.136 211.156 496.994 210.531 500.237C209.784 504.114 209.148 507.999 208.453 511.877Z" fill="#F4A086"/>
<path d="M231.627 428.764C229.526 422.145 221.136 417.608 213.712 429.09C202.389 446.6 212.591 479.354 209.37 500.5H219.939C220.829 498.453 232.793 432.436 231.627 428.764ZM183.129 374.111C185.702 376.194 189.104 376.512 192.296 376.512C218.567 376.512 233.769 367.734 230.136 355.335C226.404 342.598 202.893 344.654 190.612 348.758C187.965 349.643 184.108 350.5 182.299 353.039C179.678 356.72 176.877 369.051 183.129 374.111Z" fill="#A0B5BF"/>
<path d="M178.144 365.121C181.87 347.121 213.299 351.573 216.932 369.439C218.804 378.642 216.432 388.176 213.417 397.052C210.945 404.329 208.028 411.446 204.683 418.364C201.681 424.57 198.176 432.699 194.516 438.52C194.11 439.166 178.538 438.302 177.968 434.883C176.553 426.361 175.669 417.759 175.324 409.128C174.74 394.697 175.204 379.322 178.144 365.121ZM238.592 517.369C238.728 515.816 237.293 514.528 235.816 514.166C234.339 513.805 232.794 514.08 231.276 514.062C229.085 513.995 226.952 513.34 225.101 512.166C223.25 510.992 221.748 509.342 220.754 507.388C220.547 506.816 220.18 506.315 219.697 505.945C219.331 505.787 218.926 505.741 218.534 505.815C218.141 505.889 217.78 506.079 217.497 506.36C216.884 506.877 216.452 507.582 215.892 508.159C215.389 508.669 214.789 509.072 214.127 509.344C213.465 509.617 212.755 509.753 212.039 509.744C210.851 509.726 209.521 508.794 208.38 509.41C207.373 509.954 207.102 511.387 206.846 512.408C206.407 514.169 206.008 515.941 205.589 517.707C205.486 518.101 205.415 518.503 205.377 518.909H213.628C214.011 518.354 214.324 516.737 214.489 516.07C214.516 516.756 214.78 518.381 215.203 518.909H237.88C238.28 518.488 238.53 517.947 238.592 517.369Z" fill="#A0B5BF"/>
<path d="M146.754 507.322C149.441 508.958 152.471 509.947 155.605 510.212C156.788 506.67 157.972 503.128 159.156 499.587C159.342 499.15 159.417 498.675 159.377 498.203C159.281 497.872 159.119 497.565 158.9 497.3C158.682 497.034 158.411 496.816 158.106 496.659C155.939 495.255 152.44 493.632 151.168 496.602C149.647 500.151 148.228 503.752 146.754 507.322Z" fill="#F4A086"/>
<path d="M194.721 437.679C194.844 430.594 187.629 421.923 178.035 431.024C162.589 445.677 156.849 474.859 150.048 496.415L159.832 500.524C161.295 498.927 194.653 441.617 194.721 437.679ZM157.111 517.605C157.738 516.19 157.628 514.753 157.161 514.166C156.693 513.579 156.714 510.774 156.874 506.723C156.946 504.87 153.955 503.088 151.266 505.201C150.394 505.887 149.684 506.271 149.115 506.01C148.638 505.79 148.441 504.7 147.749 505.075C147.139 505.406 146.501 506.687 146.021 507.589C145.194 509.143 144.379 510.716 143.558 512.278C143.377 512.624 143.189 512.987 143.029 513.355L156.254 518.909C156.612 518.527 156.902 518.086 157.111 517.605Z" fill="#A0B5BF"/>
<path fill-rule="evenodd" clip-rule="evenodd" d="M238.601 369.276C238.146 346.392 247.326 330.558 258.523 318.967C262.897 314.439 268.201 309.139 267.058 302.868C266.087 297.542 260.836 294.365 256.025 292.147C247.712 288.373 239.105 285.287 230.288 282.92C225.015 281.468 211.479 273.78 205.997 275.257C191.235 279.235 193.469 307.171 189.391 319.864C186.115 330.063 178.353 362.051 178.453 362.799L236.828 381.72C240.057 379.442 238.704 374.451 238.601 369.276Z" fill="#7F81B1"/>
<path d="M249.264 275.512C246.799 268.639 240.346 265.643 236.81 266.319C235.529 277.792 235.316 278.484 229.775 283.6C228.139 289.725 244.301 295.663 246.838 293.267C246.865 292.329 250.539 279.066 249.264 275.512Z" fill="#F4A086"/>
<path fill-rule="evenodd" clip-rule="evenodd" d="M257.637 260.486C258.557 261.615 259.44 262.945 259.357 264.415C259.195 265.532 258.75 266.59 258.062 267.485C257.278 268.705 256.495 269.924 255.711 271.144C254.947 269.458 254.869 267.545 254.679 265.696C254.488 263.847 254.127 261.909 252.941 260.504C252.206 259.634 251.118 258.86 251.115 257.708C251.112 256.053 252.897 255.707 253.905 256.621C255.245 257.813 256.492 259.106 257.637 260.486Z" fill="#222B56"/>
<path d="M240.068 258.911C244.294 253.742 252.653 254.846 255.56 261.391C258.222 267.383 254.951 279.869 252.505 282.434C248.228 286.919 239.431 281.515 238.255 278.067C236.533 273.017 236.514 263.258 240.068 258.911Z" fill="#F7B690"/>
<path fill-rule="evenodd" clip-rule="evenodd" d="M242.208 260.669C242.447 261.63 240.015 274.287 239.677 274.136C238.474 273.596 236.996 270.002 234.702 270.091C233.969 270.12 232.952 270.589 232.951 269.082C232.948 259.536 232.573 260.015 234.244 259.172C237.927 257.315 241.783 258.955 242.208 260.669Z" fill="#222B56"/>
<path d="M232.713 268.594C232.546 270.145 232.975 271.701 233.911 272.948C236.567 276.434 239.383 271.847 238.805 268.945C238.117 265.486 233.176 264.413 232.713 268.594Z" fill="#F7B690"/>
<path fill-rule="evenodd" clip-rule="evenodd" d="M253.477 262.192C253.253 263.025 252.776 263.94 251.943 264.061C251.074 264.187 243.148 257.373 242.644 257.311C242.14 257.249 242.718 260.792 242.158 261.172C241.679 261.497 241.045 261.252 240.514 261.026C238.177 260.035 235.607 260.127 233.081 260.238C232.956 259.288 233.112 258.323 233.53 257.461C233.933 256.81 234.438 256.227 235.024 255.734C237.532 253.474 240.724 251.795 244.057 251.913C246.052 252.032 248.007 252.525 249.82 253.366C256.864 256.439 253.82 260.924 253.477 262.192Z" fill="#222B56"/>
<path d="M214.513 314.134L194.17 316.083C194.172 325.319 194.828 334.544 196.135 343.688L213.126 341.94C213.285 332.718 213.765 323.552 214.513 314.134Z" fill="#F7B690"/>
<path fill-rule="evenodd" clip-rule="evenodd" d="M216.167 300.295C217.015 292.327 223.029 280.607 214.417 276.809C206.474 273.307 199.09 278.778 197.483 286.511C195.252 297.494 194.142 308.674 194.17 319.881L216.368 318.94C216.826 313.179 215.525 306.316 216.167 300.295Z" fill="#7F81B1"/>
<path d="M213.215 337.927L196.135 343.688C197.055 345.662 213.732 374.447 222.131 384.648C223.532 386.349 225.817 388.169 227.61 386.916C229.091 385.88 229.175 383.504 228.468 381.813C222.518 367.5 217.425 352.845 213.215 337.927Z" fill="#F7B690"/>
<path fill-rule="evenodd" clip-rule="evenodd" d="M233.294 260.951C232.881 260.997 232.489 261.156 232.161 261.411C231.833 261.666 231.582 262.007 231.436 262.395C231.349 261.393 231.51 260.384 231.905 259.459C232.299 258.534 232.916 257.72 233.7 257.089C232.711 257.224 231.958 255.99 232.172 254.989C232.48 254.013 233.154 253.193 234.053 252.702C236.815 250.868 240.137 250.073 243.43 250.457C243.491 250.027 243.552 249.596 243.613 249.165C245.613 249.627 247.425 250.689 248.807 252.208C248.867 251.828 248.927 251.448 248.986 251.067C250.415 251.96 251.844 252.853 253.273 253.745C253.22 253.685 253.183 253.611 253.166 253.532C253.15 253.453 253.155 253.37 253.18 253.294C253.206 253.217 253.251 253.148 253.311 253.094C253.371 253.04 253.445 253.003 253.524 252.986C255.056 254.245 256.324 255.794 257.255 257.545C258.186 259.296 258.762 261.214 258.948 263.188C257.236 261.132 255.061 259.511 252.602 258.457C248.956 256.905 244.82 256.683 241.362 254.728C241.839 256.733 239.878 258.903 237.897 258.563C238.236 258.209 238.575 257.855 238.915 257.502L233.294 260.951Z" fill="#222B56"/>
<path d="M232.336 377.695C233.809 378.041 234.947 379.206 235.999 380.32C237.523 381.934 239.047 383.548 240.571 385.163C241.184 385.811 241.845 386.708 241.475 387.528C241.142 388.266 240.11 388.406 239.411 388.024C238.742 387.571 238.208 386.947 237.863 386.216C237.776 386.863 237.456 387.456 236.963 387.883C236.47 388.311 235.838 388.544 235.186 388.539C234.592 387.873 233.998 387.207 233.404 386.541C232.266 387.99 230.143 387.947 228.338 387.775C225.402 387.495 221.764 386.526 223.878 383.036C225.418 380.493 229.164 376.951 232.336 377.695Z" fill="#F7B690"/>
<path d="M418.098 388.095H441.423L453.085 361.654H429.76L418.098 388.095Z" fill="#616D7D"/>
<path d="M420.719 388.095H444.045L455.707 361.654H432.382L420.719 388.095Z" fill="#7590A2"/>
<path d="M416.216 384.645H460.988C461.214 384.645 461.439 384.69 461.648 384.776C461.857 384.863 462.047 384.99 462.207 385.15C462.368 385.311 462.495 385.501 462.581 385.71C462.668 385.919 462.712 386.144 462.712 386.37C462.712 386.597 462.668 386.821 462.581 387.03C462.495 387.239 462.367 387.429 462.207 387.59C462.047 387.75 461.857 387.877 461.648 387.963C461.439 388.05 461.214 388.095 460.988 388.095H416.216C415.99 388.095 415.765 388.05 415.556 387.963C415.347 387.877 415.157 387.75 414.996 387.59C414.836 387.429 414.709 387.239 414.623 387.03C414.536 386.821 414.491 386.597 414.491 386.37C414.491 385.913 414.673 385.474 414.996 385.15C415.32 384.827 415.759 384.645 416.216 384.645Z" fill="#758798"/>
<path d="M484.955 370.631C489.265 370.631 492.276 367.124 491.667 362.814L481.54 291.187C481.192 289.051 480.111 287.102 478.483 285.676C476.855 284.249 474.781 283.434 472.618 283.37H380.512C376.202 283.37 373.191 286.876 373.8 291.186L383.927 362.814C384.275 364.95 385.356 366.899 386.984 368.325C388.612 369.751 390.685 370.566 392.848 370.631H484.955Z" fill="#616D7D"/>
<path d="M489.217 370.631C493.527 370.631 496.538 367.124 495.929 362.814L485.802 291.187C485.454 289.051 484.373 287.102 482.745 285.676C481.117 284.249 479.043 283.434 476.88 283.37H384.774C380.464 283.37 377.453 286.876 378.062 291.186L388.189 362.814C388.537 364.95 389.618 366.899 391.246 368.325C392.874 369.751 394.947 370.566 397.11 370.631H489.217Z" fill="#758798"/>
<path d="M488.403 364.874C488.975 364.89 489.543 364.779 490.066 364.547C490.589 364.316 491.054 363.971 491.426 363.537C491.799 363.103 492.069 362.592 492.219 362.04C492.368 361.488 492.393 360.909 492.29 360.347L482.861 293.654C482.661 292.416 482.035 291.287 481.092 290.461C480.149 289.635 478.947 289.163 477.694 289.127H385.588C385.016 289.11 384.448 289.222 383.925 289.453C383.402 289.684 382.937 290.03 382.565 290.463C382.192 290.897 381.921 291.409 381.772 291.961C381.622 292.513 381.598 293.091 381.701 293.654L391.13 360.347C391.33 361.584 391.956 362.713 392.899 363.54C393.842 364.366 395.043 364.838 396.297 364.874H488.403Z" fill="#F7F6F0"/>
<path d="M387.645 304.988H480.011C480.223 304.994 480.433 304.952 480.627 304.867C480.82 304.781 480.992 304.653 481.13 304.492C481.267 304.332 481.367 304.142 481.422 303.938C481.477 303.733 481.485 303.519 481.447 303.311L480.835 299.056C480.759 298.598 480.526 298.18 480.177 297.874C479.827 297.568 479.381 297.393 478.917 297.38H386.55C386.339 297.373 386.128 297.415 385.935 297.5C385.741 297.586 385.57 297.714 385.432 297.875C385.294 298.036 385.194 298.225 385.139 298.43C385.085 298.634 385.076 298.848 385.115 299.056L385.727 303.311C385.803 303.769 386.035 304.187 386.385 304.493C386.735 304.799 387.18 304.974 387.645 304.988ZM474.167 349.965H486.375C486.6 349.971 486.824 349.927 487.03 349.836C487.236 349.745 487.419 349.609 487.565 349.438C487.712 349.267 487.818 349.065 487.877 348.847C487.935 348.63 487.944 348.402 487.903 348.18L482.401 309.942C482.321 309.454 482.073 309.009 481.701 308.684C481.328 308.358 480.854 308.172 480.36 308.158H468.151C467.926 308.151 467.702 308.195 467.496 308.286C467.29 308.378 467.107 308.514 466.961 308.685C466.814 308.856 466.708 309.058 466.65 309.275C466.591 309.493 466.582 309.721 466.624 309.942L472.125 348.18C472.206 348.668 472.453 349.113 472.826 349.439C473.198 349.764 473.672 349.95 474.167 349.965ZM392.731 337.813H425.19C425.415 337.82 425.639 337.776 425.845 337.685C426.051 337.593 426.234 337.457 426.38 337.286C426.527 337.115 426.633 336.913 426.691 336.696C426.75 336.478 426.759 336.25 426.717 336.029L422.964 309.942C422.884 309.454 422.636 309.009 422.264 308.684C421.891 308.358 421.417 308.172 420.923 308.158H388.464C388.239 308.151 388.015 308.195 387.809 308.286C387.603 308.378 387.42 308.514 387.274 308.685C387.127 308.856 387.021 309.058 386.963 309.275C386.904 309.493 386.895 309.721 386.936 309.942L390.69 336.029C390.77 336.517 391.018 336.962 391.39 337.287C391.763 337.613 392.237 337.799 392.731 337.813ZM391.588 342.271C391.436 341.214 392.057 340.357 392.976 340.357H425.677C426.171 340.404 426.634 340.62 426.987 340.969C427.341 341.318 427.563 341.778 427.616 342.271L429.68 356.621H393.653L391.588 342.271ZM429.91 328.871C429.758 327.814 430.379 326.956 431.298 326.956H443.749C444.243 327.003 444.706 327.22 445.059 327.568C445.413 327.917 445.634 328.377 445.688 328.871L449.68 356.621H433.903L429.91 328.871ZM473.041 354.544C472.889 353.487 473.51 352.63 474.429 352.63H486.88C487.374 352.677 487.837 352.893 488.19 353.242C488.543 353.591 488.765 354.051 488.818 354.544L489.117 356.621H473.34L473.041 354.544ZM452.631 335.383H464.84C465.065 335.389 465.289 335.345 465.495 335.254C465.701 335.163 465.884 335.027 466.03 334.856C466.177 334.685 466.283 334.483 466.342 334.265C466.4 334.048 466.409 333.82 466.368 333.598L462.964 309.942C462.884 309.454 462.636 309.009 462.264 308.684C461.891 308.358 461.417 308.172 460.923 308.158H448.714C448.489 308.151 448.265 308.195 448.059 308.286C447.853 308.378 447.67 308.514 447.524 308.685C447.377 308.856 447.271 309.058 447.213 309.275C447.154 309.493 447.145 309.721 447.187 309.942L450.59 333.598C450.671 334.086 450.918 334.531 451.291 334.857C451.663 335.182 452.137 335.368 452.631 335.383ZM442.707 308.158L444.787 322.612C444.939 323.669 444.318 324.526 443.399 324.526H430.948C430.454 324.479 429.991 324.263 429.638 323.914C429.285 323.565 429.063 323.105 429.01 322.612L426.93 308.158H442.707ZM450.909 339.728C450.757 338.67 451.378 337.813 452.297 337.813H464.748C465.242 337.86 465.705 338.076 466.058 338.425C466.412 338.774 466.634 339.234 466.687 339.728L469.117 356.621H453.34L450.909 339.728Z" fill="#BCCACE"/>
<path d="M474.273 319.017H481.595L480.383 310.588H473.06L474.273 319.017Z" fill="#979DFE"/>
<path d="M470.122 321.466L470.33 322.914H482.156L481.948 321.466H470.122ZM482.338 324.181H470.512L470.72 325.629H482.547L482.338 324.181ZM482.729 326.896H470.903L471.111 328.344H482.937L482.729 326.896ZM483.12 329.611H471.294L471.502 331.059H483.328L483.12 329.611ZM483.51 332.326H477.733L477.941 333.774H483.719L483.51 332.326Z" fill="#F7F6F0"/>
<path fill-rule="evenodd" clip-rule="evenodd" d="M454.836 319.017H462.158L460.946 310.588H453.623L454.836 319.017Z" fill="white"/>
<path d="M450.685 321.466L450.893 322.914H462.719L462.511 321.466H450.685ZM462.902 324.181H451.075L451.284 325.629H463.11L462.902 324.181ZM463.292 326.896H451.466L451.674 328.344H463.5L463.292 326.896ZM463.683 329.611H451.857L452.065 331.059H463.891L463.683 329.611ZM464.074 332.326H458.296L458.504 333.774H464.282L464.074 332.326Z" fill="#F7F6F0"/>
<path d="M437.541 337.816H444.863L443.651 329.387H436.328L437.541 337.816Z" fill="#70A0FE"/>
<path d="M433.389 340.265L433.598 341.712H445.424L445.216 340.265H433.389ZM445.606 342.98H433.78L433.988 344.427H445.815L445.606 342.98ZM445.997 345.695H434.171L434.379 347.142H446.205L445.997 345.695ZM446.388 348.41H434.561L434.77 349.857H446.596L446.388 348.41ZM446.778 351.125H441.001L441.209 352.572H446.986L446.778 351.125ZM428.959 309.474L429.168 310.922H440.994L440.785 309.474H428.959ZM441.176 312.189H429.35L429.558 313.637H441.384L441.176 312.189ZM441.567 314.904H436.074L436.283 316.352H441.775L441.567 314.904Z" fill="#F7F6F0"/>
<path d="M390.926 319.017H422.063L420.85 310.588H389.713L390.926 319.017Z" fill="#70A0FE"/>
<path d="M391.278 321.466L391.487 322.914H422.624L422.416 321.466H391.278ZM422.806 324.181H404.337L404.545 325.629H423.014L422.806 324.181Z" fill="#F7F6F0"/>
<path fill-rule="evenodd" clip-rule="evenodd" d="M459.12 348.786H466.442L465.229 340.357H457.906L459.12 348.786Z" fill="#818BEA"/>
<path d="M454.968 351.235L455.176 352.682H467.002L466.794 351.235H454.968ZM467.184 353.95H459.581L459.789 355.397H467.393L467.184 353.95Z" fill="#F7F6F0"/>
<path fill-rule="evenodd" clip-rule="evenodd" d="M477.978 344.767H485.301L484.087 336.339H476.765L477.978 344.767Z" fill="#66BCD5"/>
<path d="M473.827 347.217L474.035 348.664H485.861L485.653 347.217H473.827Z" fill="#F7F6F0"/>
<path d="M587.424 349.513L587.419 349.574C586.765 349.469 586.097 349.5 585.455 349.664C584.814 349.829 584.213 350.124 583.691 350.531C583.169 350.938 582.736 351.449 582.419 352.03C582.103 352.612 581.91 353.253 581.852 353.913L573.615 440.488C573.538 441.343 573.143 442.138 572.509 442.716C571.874 443.294 571.045 443.613 570.187 443.61H518.087C516.797 443.61 515.561 444.122 514.65 445.034C513.738 445.945 513.226 447.181 513.226 448.47C513.226 449.76 513.738 450.996 514.65 451.907C515.561 452.819 516.797 453.331 518.087 453.331H570.187C572.087 453.331 573.964 452.918 575.69 452.121C577.415 451.325 578.947 450.164 580.18 448.718C583.045 448.931 594.145 449.882 594.145 449.882L605.519 446.263L615.854 349.513H587.424Z" fill="#B164A5"/>
<path d="M599.35 443.61C600.209 443.613 601.038 443.294 601.672 442.716C602.307 442.138 602.702 441.343 602.779 440.488L611.016 353.913C611.13 352.709 611.689 351.591 612.584 350.777C613.479 349.964 614.645 349.513 615.854 349.513C616.531 349.513 617.2 349.654 617.82 349.928C618.439 350.202 618.994 350.602 619.449 351.103C619.905 351.604 620.251 352.195 620.465 352.837C620.679 353.479 620.756 354.159 620.692 354.833L612.458 441.394C612.152 444.658 610.639 447.692 608.215 449.899C605.79 452.107 602.629 453.331 599.35 453.331H547.25C546.612 453.331 545.98 453.205 545.39 452.961C544.801 452.717 544.265 452.359 543.813 451.907C543.362 451.456 543.004 450.92 542.76 450.331C542.516 449.741 542.39 449.109 542.39 448.471C542.39 447.832 542.516 447.2 542.76 446.611C543.004 446.021 543.362 445.485 543.813 445.034C544.265 444.582 544.801 444.224 545.39 443.98C545.98 443.736 546.612 443.61 547.25 443.61H599.35Z" fill="#C67DBD"/>
<path d="M561.958 526.795H569.862V453.331H561.958V526.795Z" fill="#BABAD3"/>
<path d="M594.077 526.795C594.077 524.699 593.244 522.688 591.762 521.206C590.28 519.724 588.27 518.891 586.174 518.891H545.646C543.55 518.891 541.54 519.724 540.058 521.206C538.576 522.688 537.743 524.699 537.743 526.795H594.077ZM562.303 460.89H569.517C570.73 460.89 571.922 460.586 572.986 460.005C574.05 459.424 574.951 458.586 575.607 457.566L578.33 453.331H553.49L556.213 457.566C556.869 458.586 557.77 459.424 558.834 460.005C559.898 460.586 561.09 460.89 562.303 460.89Z" fill="#4B4B6D"/>
<path d="M497.065 381.651C500.886 379.85 522.787 376.79 526.658 375.103C531.993 372.779 536.036 366.512 538.657 361.316C540.057 358.42 541.31 355.455 542.412 352.433L558.78 361.082C556.566 364.88 554.095 368.523 551.385 371.984C547.224 377.291 542.402 382.239 536.454 385.417C530.254 388.729 504.598 389.13 497.654 388.034C492.059 386.873 493.245 383.452 497.065 381.651Z" fill="#F4A086"/>
<path d="M553.964 334.665C558.285 332.326 567.153 332.822 567.581 339.046C567.833 342.711 565.729 346.712 564.336 350.005C562.78 353.681 560.998 357.257 559.001 360.713C558.929 360.837 558.852 360.958 558.78 361.082L540.744 353.56C544.707 348.569 548.42 337.667 553.964 334.665Z" fill="#A3A8FF"/>
<path d="M481.329 380.279C479.831 381.602 478.914 383.461 478.775 385.454C478.732 387.428 480.342 391.384 481.809 390.062C483.021 388.97 483.324 387.143 484.954 387.192C486.585 387.242 488.046 388.142 489.562 388.745C494.036 390.522 507.587 388.111 501.821 381.026C497.405 375.599 486.15 375.687 481.329 380.279ZM451.37 514.421C450.445 515.81 449.209 517.36 447.545 517.321C444.671 517.253 444.462 513.153 445.182 510.392C445.958 507.414 446.734 504.436 447.51 501.458L456.534 504.095C455.55 507.84 453.12 511.795 451.37 514.421Z" fill="#F4A086"/>
<path fill-rule="evenodd" clip-rule="evenodd" d="M474.125 428.192C481.387 420.171 526.779 410.201 548.127 403.67C564.068 398.793 580.473 396.051 582.9 417.581C583.358 422.225 582.511 426.904 580.456 431.094C578.4 435.283 575.217 438.816 571.264 441.295C562.598 446.617 551.704 446.118 541.557 445.446C522.211 444.166 510.347 443.38 491 442.099C489.15 467.418 467.634 476.481 458.001 504.524L443.529 501.573C452.303 488.37 470.518 432.814 474.125 428.192Z" fill="#0A3C5F"/>
<path fill-rule="evenodd" clip-rule="evenodd" d="M586.515 441.295C577.849 446.617 566.955 446.118 556.808 445.446C536.775 444.12 516.741 442.794 496.708 441.468C493.51 441.256 489.921 440.849 487.927 438.341C485.597 435.411 486.725 430.833 489.377 428.192C492.029 425.55 495.759 424.366 499.339 423.271C520.685 416.737 542.031 410.203 563.378 403.67C579.319 398.793 595.724 396.051 598.152 417.581C598.609 422.225 597.763 426.905 595.707 431.094C593.651 435.283 590.468 438.816 586.515 441.295Z" fill="#0A3C5F"/>
<path d="M586.088 350.804C584.996 358.956 581.864 366.862 581.996 375.086C582.084 379.214 582.989 383.283 584.658 387.059C586.327 390.836 588.728 394.244 591.721 397.087C595.42 400.564 600.499 404.511 599.175 409.412C597.983 413.82 592.471 415.126 587.934 415.642C578.04 416.766 566.75 417.461 559.472 410.665C555.015 406.504 553.086 400.351 551.668 394.42C549.154 383.906 547.683 373.169 547.277 362.365C546.932 353.173 547.546 343.372 552.831 335.842C558.096 328.34 564.005 323.365 572.62 326.009C582.417 335.62 587.171 342.718 586.088 350.804Z" fill="#B5B9FF"/>
<path fill-rule="evenodd" clip-rule="evenodd" d="M455.456 508.151C454.895 509.134 452.305 509.594 451.238 509.637C450.394 509.671 446.531 507.911 445.697 508.199C445.095 508.406 442.854 516.469 440.071 518.179C437.288 519.889 434.202 520.832 431.242 522.104C430.177 522.507 429.192 523.094 428.331 523.84C427.499 524.63 426.915 525.769 427.095 526.768C427.117 526.854 427.146 526.938 427.182 527.019H445.387C445.916 526.398 446.392 525.724 446.856 525.06C448.521 522.677 450.186 520.294 451.851 517.911C452.375 520.515 452.829 523.568 453.332 527.019H455.366C456.015 524.243 457.81 511.035 455.456 508.151Z" fill="#B5B9FF"/>
<path d="M496.063 514.421C495.707 515.81 495.15 517.36 493.821 517.321C491.528 517.253 490.249 513.153 490.069 510.392C489.874 507.414 489.68 504.436 489.486 501.458L497.346 504.095C497.584 507.84 496.734 511.795 496.063 514.421Z" fill="#F4A086"/>
<path fill-rule="evenodd" clip-rule="evenodd" d="M486.597 434.852C488.288 423.659 505.366 426.925 507.056 434.971C512.469 460.29 498.633 476.481 498.624 504.524L486.365 501.573C489.585 488.92 485.336 443.207 486.597 434.852Z" fill="#0A3C5F"/>
<path fill-rule="evenodd" clip-rule="evenodd" d="M497.74 508.151C497.179 509.134 494.589 509.594 493.521 509.637C492.678 509.671 488.815 507.911 487.98 508.199C487.379 508.406 485.138 516.469 482.355 518.179C479.572 519.889 476.485 520.832 473.526 522.104C472.461 522.507 471.475 523.094 470.615 523.84C469.783 524.63 469.198 525.769 469.379 526.768C469.401 526.854 469.43 526.938 469.465 527.019H487.67C488.199 526.398 488.676 525.724 489.139 525.06C490.804 522.677 492.469 520.294 494.134 517.911C494.659 520.515 495.113 523.568 495.616 527.019H497.649C498.299 524.243 500.093 511.035 497.74 508.151Z" fill="#B5B9FF"/>
<path d="M507.489 380.679C511.309 378.878 533.21 376.79 537.082 375.103C542.416 372.779 546.459 366.512 549.08 361.316C550.48 358.42 551.733 355.455 552.835 352.433L569.203 361.082C566.989 364.88 564.518 368.523 561.808 371.984C557.647 377.291 552.826 382.239 546.878 385.417C540.677 388.729 515.021 388.158 508.077 387.062C502.482 385.901 503.668 382.479 507.489 380.679Z" fill="#F7B690"/>
<path d="M555.79 345.206C557.721 341.014 560.329 336.863 564.387 334.665C568.709 332.326 577.576 332.822 578.005 339.046C578.257 342.711 576.153 346.712 574.759 350.005C573.203 353.681 571.421 357.257 569.424 360.713C569.353 360.837 569.275 360.958 569.203 361.082L551.167 353.56C552.1 351.129 554.701 347.569 555.79 345.206Z" fill="#B5B9FF"/>
<path d="M491.825 373.093C489.968 373.83 488.475 375.267 487.668 377.095C486.958 378.937 487.132 383.205 488.96 382.459C490.47 381.842 491.374 380.227 492.892 380.826C494.409 381.425 495.478 382.768 496.7 383.848C500.306 387.038 513.872 389.365 510.85 380.744C508.536 374.142 497.918 370.408 491.825 373.093Z" fill="#F7B690"/>
<path d="M570.95 307.248C570.187 305.811 561.825 310.122 561.328 311.154C560.831 312.186 560.305 323.867 558.517 331.159C558.131 332.733 573.728 327.915 572.62 326.009C570.824 322.92 568.99 311.139 570.95 307.248Z" fill="#F4A086"/>
<path d="M546.846 296.719C549.735 284.737 566.126 287.264 570.019 288.459C573.911 289.654 574.011 295.161 574.386 299.215C574.547 301.728 573.777 304.212 572.223 306.193C570.791 308.103 564.557 310.979 564.204 311.055C561.891 315.043 558.13 319.603 554.304 319.547C552.582 319.522 551.019 318.417 550.007 317.022C549.067 315.575 548.357 313.99 547.901 312.326C546.227 307.246 545.593 301.919 546.846 296.719Z" fill="#F7B690"/>
<path fill-rule="evenodd" clip-rule="evenodd" d="M575.216 303.683C576.703 301.991 577.682 299.913 578.039 297.689C578.286 295.025 577.569 292.361 576.019 290.18C573.379 286.256 566.561 281.192 561.052 281.081C555.168 280.961 545.061 286.821 546.02 294.103C546.307 296.281 547.504 296.296 549.588 296.992C552.334 297.909 556.019 298.543 558.296 300.33C561.02 302.467 559.809 307.622 565.384 309.297C567.186 309.839 569.038 313.022 570.235 315.497C571.658 313.88 573.836 305.35 575.216 303.683Z" fill="#222B56"/>
<path fill-rule="evenodd" clip-rule="evenodd" d="M580.428 287.869C583.432 287.077 586.808 287.174 589.435 288.832C591.049 289.941 592.386 291.407 593.342 293.116C596.064 297.615 597.303 302.856 596.883 308.098C596.09 317.672 589.817 326.452 590.511 336.033C590.561 337.434 590.918 338.806 591.557 340.054C591.881 340.674 592.338 341.216 592.895 341.639C593.452 342.063 594.096 342.359 594.781 342.506C592.426 342.995 589.984 342.871 587.691 342.145C585.398 341.419 583.33 340.115 581.686 338.359C579.512 335.983 578.239 332.917 577.367 329.818C575.244 322.211 575.306 314.159 577.547 306.586C578.071 304.826 578.717 303.069 578.775 301.234C578.833 299.423 578.2 297.453 576.621 296.427C575.365 295.612 573.053 295.804 572.726 294.003C572.079 290.455 578.039 288.499 580.428 287.869Z" fill="#222B56"/>
<path d="M567.804 304.601C568.081 304.891 568.267 305.257 568.337 305.653C568.481 306.264 568.5 306.898 568.395 307.518C568.289 308.137 568.061 308.729 567.723 309.259C567.386 309.788 566.945 310.245 566.428 310.602C565.911 310.959 565.328 311.209 564.713 311.336C564.23 311.472 563.714 311.421 563.267 311.195C561.808 310.305 562.548 307.209 563.249 306.009C563.977 304.763 566.561 303.445 567.804 304.601Z" fill="#F7B690"/>
<path d="M475.438 395.455L471.811 395.79L483.975 527.212L487.602 526.877L475.438 395.455Z" fill="#D0D9DF"/>
<path d="M255.869 395.455L243.717 526.878L247.344 527.213L259.496 395.79L255.869 395.455Z" fill="#D0D9DF"/>
<path d="M225.179 395.622H506.133C506.627 395.622 507.117 395.524 507.573 395.335C508.03 395.146 508.445 394.869 508.794 394.519C509.143 394.17 509.421 393.755 509.61 393.298C509.799 392.842 509.896 392.352 509.896 391.858C509.896 390.86 509.5 389.903 508.794 389.197C508.088 388.491 507.131 388.095 506.133 388.095H225.179C224.181 388.095 223.224 388.491 222.518 389.197C221.813 389.903 221.416 390.86 221.416 391.858C221.416 392.352 221.513 392.842 221.702 393.298C221.892 393.755 222.169 394.17 222.518 394.519C222.868 394.869 223.283 395.146 223.739 395.335C224.196 395.524 224.685 395.622 225.179 395.622Z" fill="#62C1C5"/>
<path d="M145.262 349.513L145.267 349.574C145.921 349.469 146.589 349.5 147.231 349.664C147.872 349.829 148.473 350.124 148.995 350.531C149.517 350.938 149.95 351.449 150.267 352.03C150.583 352.612 150.776 353.253 150.834 353.913L159.071 440.488C159.148 441.343 159.543 442.138 160.177 442.716C160.812 443.294 161.641 443.613 162.499 443.61H214.599C215.888 443.61 217.125 444.122 218.036 445.034C218.948 445.945 219.46 447.181 219.46 448.47C219.46 449.76 218.948 450.996 218.036 451.907C217.125 452.819 215.888 453.331 214.599 453.331H162.5C160.599 453.331 158.722 452.918 156.996 452.121C155.271 451.325 153.739 450.164 152.506 448.718C149.641 448.931 138.541 449.882 138.541 449.882L127.167 446.263L116.832 349.513H145.262Z" fill="#8494FC"/>
<path d="M133.335 443.61C132.477 443.613 131.648 443.294 131.013 442.716C130.379 442.138 129.984 441.343 129.907 440.488L121.67 353.913C121.556 352.709 120.996 351.591 120.102 350.777C119.207 349.964 118.041 349.513 116.832 349.513C116.155 349.513 115.485 349.654 114.866 349.928C114.247 350.202 113.692 350.602 113.236 351.103C112.781 351.604 112.435 352.195 112.221 352.837C112.007 353.479 111.93 354.159 111.994 354.833L120.228 441.394C120.534 444.658 122.047 447.692 124.471 449.899C126.896 452.107 130.056 453.331 133.335 453.331H185.435C186.074 453.331 186.706 453.205 187.295 452.961C187.885 452.717 188.421 452.359 188.872 451.907C189.324 451.456 189.682 450.92 189.926 450.331C190.17 449.741 190.296 449.109 190.296 448.471C190.296 447.181 189.784 445.945 188.872 445.034C187.961 444.122 186.725 443.61 185.435 443.61H133.335Z" fill="#A9B4FF"/>
<path d="M170.727 453.331H162.824V526.795H170.727V453.331Z" fill="#BABAD3"/>
<path d="M138.609 526.795C138.609 524.699 139.441 522.688 140.924 521.206C142.406 519.724 144.416 518.891 146.512 518.891H187.039C188.077 518.891 189.105 519.096 190.064 519.493C191.023 519.89 191.894 520.472 192.628 521.206C193.362 521.94 193.944 522.811 194.341 523.77C194.738 524.729 194.943 525.757 194.943 526.795H138.609ZM170.383 460.89H163.168C161.956 460.89 160.763 460.586 159.7 460.005C158.636 459.424 157.735 458.586 157.079 457.566L154.356 453.331H179.196L176.472 457.566C175.817 458.586 174.916 459.424 173.852 460.005C172.788 460.586 171.595 460.89 170.383 460.89Z" fill="#4B4B6D"/>
<path d="M235.621 381.651C231.8 379.85 209.899 376.79 206.027 375.103C200.693 372.779 196.65 366.512 194.029 361.316C192.629 358.42 191.376 355.455 190.274 352.433L173.906 361.082C176.12 364.88 178.591 368.523 181.301 371.984C185.462 377.291 190.283 382.239 196.231 385.417C202.432 388.729 228.088 389.13 235.032 388.034C240.627 386.873 239.441 383.452 235.621 381.651Z" fill="#F4A086"/>
<path fill-rule="evenodd" clip-rule="evenodd" d="M178.722 334.665C174.401 332.326 165.533 332.822 165.105 339.046C164.853 342.711 166.956 346.712 168.35 350.005C169.906 353.681 171.688 357.257 173.685 360.713C173.756 360.837 173.834 360.958 173.906 361.082L191.942 353.56C187.979 348.569 184.266 337.667 178.722 334.665Z" fill="#E0E0E0"/>
<path d="M251.357 380.279C252.854 381.602 253.771 383.461 253.911 385.454C253.953 387.428 252.344 391.384 250.877 390.062C249.665 388.97 249.362 387.143 247.732 387.192C246.101 387.242 244.64 388.142 243.124 388.745C238.65 390.522 225.099 388.111 230.865 381.026C235.281 375.599 246.536 375.687 251.357 380.279ZM281.315 514.421C282.241 515.81 283.477 517.36 285.141 517.321C288.014 517.253 288.224 513.153 287.504 510.392C286.728 507.414 285.952 504.436 285.175 501.458L276.151 504.095C277.136 507.84 279.566 511.795 281.315 514.421Z" fill="#F4A086"/>
<path fill-rule="evenodd" clip-rule="evenodd" d="M258.56 428.192C251.299 420.171 205.907 410.201 184.559 403.67C168.618 398.793 152.213 396.051 149.786 417.581C149.328 422.225 150.175 426.904 152.23 431.094C154.286 435.283 157.469 438.816 161.422 441.295C170.088 446.617 180.982 446.118 191.129 445.446C210.475 444.166 222.339 443.38 241.685 442.099C243.536 467.418 265.052 476.481 274.685 504.524L289.157 501.573C280.383 488.37 262.168 432.814 258.56 428.192Z" fill="#0A3C5F"/>
<path fill-rule="evenodd" clip-rule="evenodd" d="M146.171 441.295C154.836 446.617 165.73 446.118 175.878 445.446C195.911 444.12 215.944 442.794 235.978 441.468C239.176 441.256 242.765 440.849 244.759 438.341C247.088 435.411 245.961 430.833 243.309 428.192C240.657 425.55 236.926 424.366 233.347 423.271C212.001 416.737 190.654 410.203 169.308 403.67C153.366 398.793 136.962 396.051 134.534 417.581C134.077 422.225 134.923 426.905 136.979 431.094C139.034 435.283 142.218 438.816 146.171 441.295Z" fill="#0A3C5F"/>
<path fill-rule="evenodd" clip-rule="evenodd" d="M146.598 350.804C147.69 358.956 150.822 366.862 150.69 375.086C150.602 379.214 149.697 383.283 148.028 387.059C146.359 390.836 143.958 394.244 140.964 397.087C137.265 400.564 132.187 404.511 133.511 409.412C134.703 413.82 140.215 415.126 144.752 415.642C154.646 416.766 165.935 417.461 173.214 410.665C177.671 406.504 179.6 400.351 181.018 394.42C183.532 383.906 185.003 373.169 185.409 362.365C185.754 353.173 185.139 343.372 179.855 335.842C174.59 328.34 168.681 323.365 160.065 326.009C150.269 335.62 145.514 342.718 146.598 350.804Z" fill="white"/>
<path fill-rule="evenodd" clip-rule="evenodd" d="M277.23 508.151C277.791 509.134 280.381 509.594 281.448 509.637C282.292 509.671 286.155 507.911 286.99 508.199C287.591 508.406 289.832 516.469 292.615 518.179C295.398 519.889 298.484 520.832 301.444 522.104C302.509 522.507 303.494 523.094 304.355 523.84C305.187 524.63 305.771 525.769 305.591 526.768C305.569 526.854 305.54 526.938 305.504 527.019H287.299C286.77 526.398 286.294 525.724 285.83 525.06C284.165 522.677 282.5 520.294 280.835 517.911C280.311 520.515 279.857 523.568 279.354 527.019H277.32C276.671 524.243 274.876 511.035 277.23 508.151Z" fill="#222B54"/>
<path d="M236.623 514.421C236.978 515.81 237.536 517.36 238.864 517.321C241.157 517.253 242.437 513.153 242.617 510.392C242.811 507.414 243.006 504.436 243.2 501.458L235.339 504.095C235.102 507.84 235.952 511.795 236.623 514.421Z" fill="#F4A086"/>
<path fill-rule="evenodd" clip-rule="evenodd" d="M246.089 434.852C244.398 423.659 227.32 426.925 225.629 434.971C220.217 460.29 234.053 476.481 234.062 504.524L246.321 501.573C243.101 488.92 247.35 443.207 246.089 434.852Z" fill="#0A3C5F"/>
<path fill-rule="evenodd" clip-rule="evenodd" d="M234.946 508.151C235.507 509.134 238.097 509.594 239.165 509.637C240.008 509.671 243.871 507.911 244.706 508.199C245.307 508.406 247.548 516.469 250.331 518.179C253.114 519.889 256.2 520.832 259.16 522.104C260.225 522.507 261.211 523.094 262.071 523.84C262.903 524.63 263.488 525.769 263.307 526.768C263.285 526.854 263.256 526.938 263.22 527.019H245.016C244.487 526.398 244.01 525.724 243.547 525.06C241.882 522.677 240.217 520.294 238.552 517.911C238.027 520.515 237.573 523.568 237.07 527.019H235.037C234.387 524.243 232.592 511.035 234.946 508.151Z" fill="#222B54"/>
<path d="M225.197 380.679C221.377 378.878 199.476 376.79 195.604 375.103C190.269 372.779 186.227 366.512 183.606 361.316C182.206 358.42 180.952 355.455 179.851 352.433L163.483 361.082C165.697 364.88 168.167 368.523 170.878 371.984C175.039 377.291 179.86 382.239 185.808 385.417C192.008 388.729 217.665 388.158 224.608 387.062C230.203 385.901 229.018 382.479 225.197 380.679Z" fill="#F7B690"/>
<path fill-rule="evenodd" clip-rule="evenodd" d="M176.896 345.206C174.965 341.014 172.357 336.863 168.299 334.665C163.977 332.326 155.11 332.822 154.681 339.046C154.429 342.711 156.533 346.712 157.927 350.005C159.483 353.681 161.264 357.257 163.261 360.713C163.333 360.837 163.411 360.958 163.483 361.082L181.519 353.56C180.586 351.129 177.985 347.569 176.896 345.206Z" fill="white"/>
<path d="M240.861 373.093C242.718 373.83 244.211 375.267 245.018 377.095C245.727 378.937 245.554 383.205 243.726 382.459C242.216 381.842 241.312 380.227 239.794 380.826C238.277 381.425 237.208 382.768 235.986 383.848C232.38 387.038 218.814 389.365 221.836 380.744C224.15 374.142 234.768 370.408 240.861 373.093Z" fill="#F7B690"/>
<path d="M161.736 307.248C162.499 305.811 170.86 310.122 171.357 311.154C171.854 312.186 172.381 323.867 174.169 331.159C174.554 332.733 158.958 327.915 160.065 326.009C161.861 322.92 163.696 311.139 161.736 307.248Z" fill="#F4A086"/>
<path d="M185.839 296.719C182.951 284.737 166.56 287.264 162.667 288.459C158.774 289.654 158.675 295.161 158.299 299.215C158.138 301.728 158.909 304.212 160.463 306.193C161.894 308.103 168.129 310.979 168.482 311.055C170.795 315.043 174.556 319.603 178.381 319.547C180.104 319.522 181.667 318.417 182.679 317.022C183.619 315.575 184.329 313.99 184.785 312.326C186.459 307.246 187.093 301.919 185.839 296.719Z" fill="#F7B690"/>
<path d="M164.882 304.601C164.605 304.891 164.419 305.257 164.348 305.653C164.205 306.264 164.185 306.898 164.291 307.518C164.396 308.137 164.625 308.729 164.962 309.259C165.3 309.788 165.741 310.245 166.258 310.602C166.775 310.959 167.358 311.209 167.973 311.336C168.456 311.472 168.971 311.421 169.419 311.195C170.878 310.305 170.138 307.209 169.437 306.009C168.709 304.763 166.125 303.445 164.882 304.601Z" fill="#F7B690"/>
<path fill-rule="evenodd" clip-rule="evenodd" d="M147.897 297.247C150.143 294.265 147.675 281.081 171.633 281.081C177.519 281.081 187.625 286.821 186.665 294.102C186.379 296.281 185.182 296.296 183.098 296.992C180.352 297.909 176.667 298.542 174.39 300.33C172.364 301.92 165.615 331.323 174.176 337.746C153.825 339.87 143.997 340.033 141.369 331.052C138.027 319.63 140.739 306.754 147.897 297.247Z" fill="#222B56"/>
<path d="M263.051 383.078L231.576 385.595C231.019 385.639 230.498 385.892 230.119 386.303C229.739 386.714 229.529 387.253 229.529 387.812C229.529 388.403 229.763 388.968 230.18 389.386C230.598 389.803 231.164 390.037 231.754 390.037H263.228C263.521 390.037 263.81 389.98 264.08 389.868C264.35 389.756 264.595 389.592 264.802 389.386C265.008 389.179 265.172 388.934 265.284 388.664C265.396 388.394 265.453 388.105 265.453 387.812V385.295C265.453 384.988 265.39 384.684 265.267 384.403C265.143 384.122 264.963 383.869 264.738 383.661C264.512 383.452 264.246 383.293 263.955 383.193C263.665 383.092 263.357 383.053 263.051 383.078Z" fill="#A2D1EB"/>
<path d="M420.696 494.662C421.028 497.753 421.214 501.042 419.793 503.807C418.371 506.572 414.767 508.445 412.045 506.943C410.511 506.096 409.631 504.446 408.834 502.885C404.361 494.121 399.887 485.357 395.414 476.593C391.725 469.367 387.939 461.7 388.407 453.601C388.569 449.831 389.84 446.192 392.06 443.14C394.035 440.529 398.329 436.373 401.283 439.425C404.224 442.464 406.243 447.769 408.105 451.531C412.407 460.225 415.713 469.378 417.962 478.815C419.207 484.034 420.12 489.327 420.696 494.662Z" fill="#F7B690"/>
<path fill-rule="evenodd" clip-rule="evenodd" d="M388.443 455.32C388.623 451.125 390.037 447.076 392.507 443.68C394.706 440.775 395.991 433.476 399.278 436.873C402.551 440.255 408.289 448.83 410.361 453.016C413.083 458.527 415.447 464.208 417.439 470.023L395.994 480.421C391.969 472.522 387.932 464.152 388.443 455.32Z" fill="white"/>
<path d="M420.023 494.06C417.847 491.41 414.099 490.482 410.691 490.86C407.283 491.239 404.112 492.728 401.015 494.198C395.337 496.895 389.662 499.598 383.991 502.309C378.134 505.103 372.278 507.898 366.421 510.692C365.509 511.128 364.505 511.665 364.21 512.633C363.895 513.669 364.584 514.799 365.522 515.34C366.502 515.812 367.579 516.047 368.666 516.026C381.942 516.686 395.206 514.488 407.56 509.58C411.107 508.17 416.142 506.613 419.009 504.007C421.749 501.517 422.442 497.006 420.023 494.06Z" fill="#F7B690"/>
<path fill-rule="evenodd" clip-rule="evenodd" d="M383.244 513.809C376.716 512.854 345.737 512.854 339.21 513.809C331.092 514.997 332.314 525.1 333.336 531.145C334.452 537.74 335.818 544.822 340.665 549.432C345.4 553.934 377.053 553.934 381.788 549.432C386.635 544.822 388.001 537.74 389.117 531.145C390.14 525.1 391.361 514.997 383.244 513.809Z" fill="#222B54"/>
<path fill-rule="evenodd" clip-rule="evenodd" d="M269.568 541.513C266.16 545.271 263.937 551.435 266.891 555.339C269.393 558.647 339.337 552.14 349.68 552.14C357.03 542.772 356.739 528.546 337.905 518.959C333.876 516.908 329.451 519.063 325.073 519.984C312.402 522.65 278.032 532.179 269.568 541.513ZM420.805 474.754C425.859 474.314 431.439 476.279 433.899 480.715C435.912 484.342 435.48 488.928 433.785 492.714C432.09 496.499 429.28 499.656 426.513 502.747C386.519 547.423 385.872 549.447 379.186 551.24C367.79 554.298 354.032 551.193 364.133 525.027C365.761 520.809 408.252 475.846 420.805 474.754Z" fill="#222B54"/>
<path d="M385.217 566.122C387.88 564.568 393.159 557.706 399.339 548.667L387.707 544.568C383.904 558.062 382.425 567.751 385.217 566.122Z" fill="#F7B690"/>
<path fill-rule="evenodd" clip-rule="evenodd" d="M430.935 475.5C423.84 472.078 416.846 472.97 411.181 482.151C403.543 494.53 393.294 524.744 387.707 544.568L401.052 550.615C409.499 531.338 426.152 506.335 432.602 494.979C436.219 488.611 436.532 478.2 430.935 475.5Z" fill="#0A3C5F"/>
<path d="M349.936 553.514L344.162 564.311C352.789 564.88 359.731 564.977 362.657 563.765C365.601 562.545 359.725 558.243 349.936 553.514Z" fill="#F7B690"/>
<path fill-rule="evenodd" clip-rule="evenodd" d="M281.646 541.331C270.858 541.331 265.532 546.877 265.532 550.784C265.532 557.428 269.632 564.531 279.848 564.531C292.839 564.531 325.389 564.088 345.352 565.45L349.937 553.514C335.207 546.399 297.426 541.331 281.646 541.331Z" fill="#0A3C5F"/>
<path fill-rule="evenodd" clip-rule="evenodd" d="M366.929 562.251C366.536 562.005 363.564 557.623 361.625 556.847C360.5 556.397 358.981 555.683 357.774 556.274C356.407 556.943 356.344 558.843 355.532 559.987C354.915 560.851 354.094 561.55 353.141 562.02L351.254 559.484C344.575 562.569 349.881 570.334 343.181 573.53C341.563 574.302 339.798 574.843 338.41 575.978C337.023 577.113 336.144 579.184 337.068 580.721C337.426 581.288 337.964 581.719 338.596 581.946L360.179 571.474C360.179 571.474 360.309 567.107 359.692 566.615C360.425 566.911 362.142 567.71 362.925 567.722L366.929 562.251ZM399.815 566.693C399.886 564.908 399.141 563.428 398.374 563.012C397.608 562.597 396.411 559.603 394.824 555.222C394.098 553.218 390.053 552.658 388.033 556.108C387.378 557.228 386.769 557.954 386.033 557.929C385.417 557.909 384.726 556.837 384.134 557.545C383.611 558.17 383.471 559.818 383.338 560.992C383.11 563.015 382.903 565.052 382.685 567.081C382.637 567.53 382.59 568 382.575 568.463H399.446C399.67 567.899 399.795 567.3 399.815 566.693Z" fill="#0A3C5F"/>
<path d="M301.758 494.662C301.425 497.753 301.24 501.042 302.661 503.807C304.082 506.572 307.686 508.445 310.408 506.943C311.942 506.096 312.823 504.446 313.62 502.885C318.093 494.121 322.566 485.357 327.04 476.593C330.728 469.367 334.515 461.7 334.047 453.601C333.884 449.831 332.614 446.192 330.394 443.14C328.418 440.529 324.124 436.373 321.171 439.425C318.229 442.464 316.21 447.769 314.348 451.531C310.047 460.225 306.74 469.378 304.491 478.815C303.247 484.034 302.334 489.327 301.758 494.662Z" fill="#F7B690"/>
<path fill-rule="evenodd" clip-rule="evenodd" d="M334.042 455.32C333.861 451.125 332.448 447.076 329.978 443.68C327.779 440.775 326.493 433.476 323.207 436.873C319.934 440.255 314.195 448.83 312.124 453.016C309.402 458.527 307.038 464.208 305.045 470.023L326.491 480.421C330.515 472.522 334.553 464.152 334.042 455.32Z" fill="white"/>
<path d="M303.002 495.59C305.178 492.94 308.926 492.012 312.334 492.39C315.742 492.769 318.913 494.258 322.01 495.728C327.688 498.425 333.363 501.128 339.034 503.839C344.891 506.633 350.748 509.428 356.604 512.222C357.516 512.658 358.52 513.195 358.815 514.163C359.13 515.199 358.441 516.329 357.503 516.87C356.523 517.342 355.446 517.577 354.359 517.556C341.083 518.216 327.819 516.018 315.466 511.11C311.918 509.701 306.883 508.143 304.016 505.537C301.276 503.047 300.583 498.536 303.002 495.59Z" fill="#F7B690"/>
<path fill-rule="evenodd" clip-rule="evenodd" d="M400.153 437.84C398.063 435.31 394.916 433.929 391.835 432.799C382.781 429.479 362.011 420.791 361.227 420.807C360.443 420.791 339.672 429.479 330.618 432.799C327.537 433.929 324.391 435.31 322.301 437.84C319.513 441.215 319.15 446.065 320.152 450.327C321.155 454.588 323.341 458.457 325.25 462.397C327.63 467.316 329.603 472.422 331.148 477.663C333.946 487.142 335.348 496.979 335.309 506.862C335.295 509.887 333.688 515.003 334.618 517.857C335.785 521.441 341.966 522.253 345.087 522.655C350.438 523.342 355.837 523.574 361.227 523.348C366.617 523.574 372.016 523.342 377.366 522.655C380.488 522.253 386.668 521.441 387.836 517.857C388.765 515.003 387.159 509.887 387.145 506.862C387.106 496.979 388.507 487.142 391.306 477.663C392.851 472.422 394.824 467.316 397.204 462.397C399.113 458.457 401.299 454.588 402.301 450.327C403.304 446.065 402.941 441.215 400.153 437.84Z" fill="white"/>
<path d="M368.054 419.75C367.21 417.033 366.757 411.953 365.077 410.145C364.068 409.06 358.806 409.06 357.797 410.145C356.117 411.953 355.664 417.033 354.82 419.75C353.874 422.793 353.05 426.444 354.038 429.454C354.286 430.337 354.748 431.145 355.383 431.808C356.017 432.47 356.805 432.966 357.676 433.253C358.915 433.608 363.959 433.608 365.197 433.253C366.069 432.966 366.856 432.47 367.491 431.808C368.125 431.145 368.587 430.337 368.836 429.454C369.824 426.444 369 422.793 368.054 419.75Z" fill="#F4A086"/>
<path d="M372.583 396.868C370.889 391.932 351.985 391.932 350.291 396.868C348.978 400.9 348.712 405.199 349.518 409.361C350.199 413.122 351.744 416.673 354.032 419.734C355.54 421.733 357.503 424.68 359.7 425.675H363.174C365.37 424.68 367.334 421.733 368.842 419.734C371.13 416.673 372.675 413.122 373.355 409.361C374.162 405.199 373.896 400.9 372.583 396.868Z" fill="#F7B690"/>
<path fill-rule="evenodd" clip-rule="evenodd" d="M372.013 409.96C372.247 408.792 372.761 407.694 372.988 406.525C373.216 405.356 373.633 404.013 372.784 403.178C372.009 406.76 370.494 410.297 369.319 413.768C369.116 414.538 368.743 415.253 368.228 415.86C367.487 416.502 366.567 416.9 365.592 416.998C364.539 417.184 361.759 415.999 361.437 416.019C361.115 415.999 358.335 417.184 357.282 416.998C356.307 416.9 355.386 416.502 354.646 415.86C354.13 415.253 353.757 414.538 353.555 413.768C352.379 410.296 351.402 406.761 350.627 403.178C349.777 404.013 349.658 405.356 349.885 406.525C350.112 407.694 350.626 408.792 350.86 409.96C350.879 410.052 350.895 410.144 350.909 410.237C351.05 411.011 350.971 411.81 350.68 412.541C350.5 412.813 350.381 413.119 350.328 413.441C350.357 413.806 350.424 414.168 350.526 414.52C350.838 416.106 351.294 417.659 351.889 419.162C352.484 420.665 353.209 422.113 354.057 423.49C354.481 424.178 354.935 424.847 355.417 425.497C355.619 425.769 356.566 427.308 356.883 427.308L360.577 428.363H362.297L365.991 427.308C366.308 427.308 367.255 425.769 367.456 425.497C367.938 424.848 368.392 424.179 368.816 423.49C369.664 422.113 370.39 420.665 370.984 419.162C371.579 417.659 372.035 416.106 372.347 414.52C372.45 414.168 372.516 413.806 372.545 413.441C372.493 413.119 372.373 412.813 372.194 412.541C371.903 411.81 371.823 411.011 371.964 410.237C371.978 410.145 371.995 410.052 372.013 409.96Z" fill="#0A3C5F"/>
<path fill-rule="evenodd" clip-rule="evenodd" d="M379.949 386.643C378.827 385.153 377.245 384.074 375.449 383.572C373.653 383.071 371.741 383.174 370.009 383.867C368.579 384.487 367.294 385.524 365.78 385.841C364.012 386.211 362.212 385.545 360.526 384.866C358.84 384.187 357.069 383.471 355.285 383.743C353.501 384.014 351.761 385.67 351.993 387.579C350.77 387.129 349.439 387.071 348.182 387.413C346.925 387.755 345.807 388.48 344.981 389.488C344.146 390.566 343.627 391.854 343.48 393.21C343.334 394.565 343.566 395.935 344.151 397.166C344.878 398.628 346.096 399.796 346.627 401.351C347.233 403.128 346.534 407.394 348.652 408.21C350.288 408.841 351.198 395.838 355.785 395.51C356.986 396.778 358.569 397.618 360.292 397.9C362.015 398.183 363.783 397.893 365.326 397.074C366.471 396.436 367.685 395.472 368.917 395.888C369.826 396.114 370.648 396.603 371.281 397.293C372.56 399.06 372.186 407.11 373.951 408.438C374.894 405.569 375.27 402.544 375.06 399.531C375.863 399.558 376.662 399.418 377.408 399.119C379.574 398.232 381.193 399.215 381.64 396.783C382.087 394.351 381.403 388.574 379.949 386.643Z" fill="#0A3C5F"/>
<path d="M347.384 409.043C346.866 408.217 346.619 407.25 346.678 406.276C346.804 405.311 347.604 404.394 348.51 404.506C348.794 404.562 349.06 404.684 349.289 404.861C349.518 405.037 349.703 405.265 349.83 405.525C350.094 406.061 350.279 406.632 350.379 407.221C350.604 408.242 350.828 409.262 351.053 410.283C351.242 411.142 351.355 412.231 350.674 412.73C349.428 413.643 347.881 409.962 347.384 409.043ZM375.344 409.043C375.862 408.217 376.109 407.25 376.051 406.276C375.924 405.311 375.125 404.394 374.219 404.506C373.935 404.562 373.668 404.684 373.439 404.861C373.21 405.037 373.025 405.265 372.899 405.525C372.634 406.061 372.449 406.632 372.349 407.221C372.125 408.242 371.9 409.262 371.675 410.283C371.487 411.142 371.374 412.231 372.055 412.73C373.3 413.643 374.848 409.962 375.344 409.043Z" fill="#F7B690"/>
<path d="M389.344 518.971H332.011C330.718 518.971 329.472 518.485 328.52 517.609C327.568 516.734 326.979 515.533 326.871 514.244L323.895 478.815C323.835 478.104 323.924 477.388 324.155 476.713C324.386 476.037 324.755 475.417 325.238 474.892C325.721 474.366 326.308 473.947 326.962 473.66C327.615 473.373 328.321 473.225 329.035 473.225H392.32C393.034 473.225 393.74 473.373 394.393 473.66C395.047 473.947 395.634 474.366 396.117 474.892C396.6 475.417 396.969 476.037 397.2 476.713C397.431 477.388 397.52 478.104 397.46 478.815L394.484 514.244C394.376 515.533 393.787 516.734 392.835 517.609C391.883 518.485 390.637 518.971 389.344 518.971Z" fill="#A2D1EB"/>
<path d="M324.022 480.331C324.296 479.208 324.939 478.209 325.848 477.495C326.757 476.781 327.879 476.393 329.035 476.393H392.32C393.476 476.393 394.598 476.781 395.507 477.495C396.416 478.209 397.059 479.208 397.333 480.331L397.46 478.815C397.52 478.104 397.431 477.388 397.2 476.712C396.969 476.037 396.6 475.417 396.117 474.892C395.634 474.366 395.047 473.947 394.393 473.66C393.74 473.373 393.034 473.225 392.32 473.225H329.035C328.321 473.225 327.615 473.373 326.962 473.66C326.308 473.947 325.721 474.366 325.238 474.892C324.755 475.417 324.386 476.037 324.155 476.713C323.924 477.388 323.835 478.104 323.895 478.815L324.022 480.331Z" fill="#3C79A6"/>
</g>
<defs>
<linearGradient id="paint0_linear_44_40" x1="190.388" y1="194.061" x2="467.916" y2="675.76" gradientUnits="userSpaceOnUse">
<stop offset="0.006" stop-color="#FDF3FF"/>
<stop offset="0.449" stop-color="#D8E4FF"/>
<stop offset="0.708" stop-color="#CEDCFF"/>
<stop offset="1" stop-color="#C3D4FF"/>
</linearGradient>
<linearGradient id="paint1_linear_44_40" x1="549.912" y1="304.354" x2="522.864" y2="263.411" gradientUnits="userSpaceOnUse">
<stop stop-color="#AEC7F3"/>
<stop offset="0.806" stop-color="#81A4D7"/>
</linearGradient>
<linearGradient id="paint2_linear_44_40" x1="498.633" y1="262.957" x2="446.756" y2="250.343" gradientUnits="userSpaceOnUse">
<stop stop-color="#D0FCFF"/>
<stop offset="1" stop-color="#8CCCE5"/>
</linearGradient>
<linearGradient id="paint3_linear_44_40" x1="483.807" y1="348.125" x2="556.647" y2="165.182" gradientUnits="userSpaceOnUse">
<stop stop-color="#C48DD4"/>
<stop offset="1" stop-color="#A95CDA"/>
</linearGradient>
<linearGradient id="paint4_linear_44_40" x1="214.017" y1="347.747" x2="168.865" y2="326.161" gradientUnits="userSpaceOnUse">
<stop stop-color="#AEC7F3"/>
<stop offset="0.806" stop-color="#81A4D7"/>
</linearGradient>
<linearGradient id="paint5_linear_44_40" x1="149.276" y1="338.966" x2="99.3317" y2="354.55" gradientUnits="userSpaceOnUse">
<stop stop-color="#D0FCFF"/>
<stop offset="1" stop-color="#8CCCE5"/>
</linearGradient>
<linearGradient id="paint6_linear_44_40" x1="180.32" y1="420.4" x2="148.16" y2="223.741" gradientUnits="userSpaceOnUse">
<stop stop-color="#C48DD4"/>
<stop offset="1" stop-color="#A95CDA"/>
</linearGradient>
<linearGradient id="paint7_linear_44_40" x1="98.5462" y1="467.733" x2="171.932" y2="475.071" gradientUnits="userSpaceOnUse">
<stop offset="0.006" stop-color="#FDF3FF"/>
<stop offset="0.449" stop-color="#D8E4FF"/>
<stop offset="0.708" stop-color="#CEDCFF"/>
<stop offset="1" stop-color="#C3D4FF"/>
</linearGradient>
<linearGradient id="paint8_linear_44_40" x1="165.923" y1="430.406" x2="102.449" y2="430.406" gradientUnits="userSpaceOnUse">
<stop stop-color="#C3D4FF"/>
<stop offset="0.551" stop-color="#D8E4FF"/>
<stop offset="0.994" stop-color="#FDF3FF"/>
</linearGradient>
<clipPath id="clip0_44_40">
<rect width="681" height="681" fill="white"/>
</clipPath>
</defs>
</svg>
